<svg xmlns="http://www.w3.org/2000/svg" width="29" height="24">
    <path fill="#CB6920" fill-rule="evenodd" d="M24.201 18.783a.718.718 0 0 0 .195.171l.003.002.126.043.126-.043.003-.002a.718.718 0 0 0 .195-.171s3.731-4.429 4.106-8.267a5.22 5.22 0 0 0 .038-.603c0-2.713-2.015-4.912-4.5-4.912-2.486 0-4.501 2.199-4.501 4.912 0 .208.016.411.039.611.384 3.837 4.17 8.259 4.17 8.259zm.292-12.029c1.596 0 2.894 1.418 2.894 3.159 0 1.742-1.298 3.16-2.894 3.16s-2.895-1.418-2.895-3.16c0-1.741 1.299-3.159 2.895-3.159zM4.201 18.783a.718.718 0 0 0 .195.171l.003.002.126.043.126-.043.003-.002a.718.718 0 0 0 .195-.171s3.731-4.429 4.106-8.267a5.22 5.22 0 0 0 .038-.603c0-2.713-2.015-4.912-4.5-4.912-2.486 0-4.501 2.199-4.501 4.912 0 .208.016.411.039.611.384 3.837 4.17 8.259 4.17 8.259zm.292-12.029c1.596 0 2.894 1.418 2.894 3.159 0 1.742-1.298 3.16-2.894 3.16s-2.895-1.418-2.895-3.16c0-1.741 1.299-3.159 2.895-3.159z"/>
    <path fill="#F78631" fill-rule="evenodd" d="M14.468 23.628c.12.141.235.23.346.294l.006.003.224.073.224-.073.006-.003c.111-.064.227-.153.346-.294 0 0 6.634-7.593 7.3-14.172.041-.339.067-.683.067-1.033 0-4.651-3.582-8.421-8-8.421-4.419 0-8.001 3.77-8.001 8.421 0 .356.027.703.069 1.047.683 6.577 7.413 14.158 7.413 14.158zm.519-20.622c2.838 0 5.146 2.431 5.146 5.417 0 2.986-2.308 5.416-5.146 5.416-2.837 0-5.146-2.43-5.146-5.416s2.309-5.417 5.146-5.417z"/>
</svg>
