<svg xmlns="http://www.w3.org/2000/svg" width="24" height="24">
    <path fill="#F78631" fill-rule="evenodd" d="M2.999 3.75v-3a.749.749 0 1 1 1.499 0v3a.749.749 0 1 1-1.499 0zm12.748.75c.415 0 .75-.335.75-.75v-3a.749.749 0 1 0-1.5 0v3c0 .415.336.75.75.75zM2.999 16.501h3v-3h-3v3zm4.499 0h3v-3h-3v3zm-5.999 1.351V7.5h16.499v3.001h1.499V4.65c0-.911-.727-1.65-1.625-1.65h-.625v.75c0 .826-.672 1.5-1.5 1.5a1.502 1.502 0 0 1-1.499-1.5V3H5.249v.75c0 .826-.673 1.5-1.5 1.5a1.503 1.503 0 0 1-1.501-1.5V3h-.623C.726 3-.001 3.739-.001 4.65v13.202c0 .908.727 1.649 1.626 1.649h8.873v-1.5H1.625c-.069 0-.126-.07-.126-.149zm13.498-5.851v-3h-2.999v3h2.999z"/>
    <path fill="#F78631" fill-rule="evenodd" d="M5.999 9.001h-3v3h3v-3zm1.499 3h3v-3h-3v3zM23.997 18.001A6 6 0 1 1 12 18.002a6 6 0 0 1 11.997-.001zm-1.5 0c0-2.481-2.019-4.5-4.499-4.5a4.506 4.506 0 0 0-4.501 4.5 4.506 4.506 0 0 0 4.501 4.501 4.505 4.505 0 0 0 4.499-4.501zm-2.25 0h-2.249v-2.25a.75.75 0 0 0-1.501 0v3c0 .415.336.75.75.75h3a.75.75 0 1 0 0-1.5z"/>
</svg>
