<svg xmlns="http://www.w3.org/2000/svg" width="27" height="27">
    <defs>
        <filter id="a" width="27" height="27" x="0" y="0" filterUnits="userSpaceOnUse">
            <feOffset dx="-.616" dy=".788" in="SourceAlpha"/>
            <feGaussianBlur result="blurOut" stdDeviation="1.414"/>
            <feFlood flood-color="#000" result="floodOut"/>
            <feComposite in="floodOut" in2="blurOut" operator="atop"/>
            <feComponentTransfer>
                <feFuncA slope=".12" type="linear"/>
            </feComponentTransfer>
            <feMerge>
                <feMergeNode/>
                <feMergeNode in="SourceGraphic"/>
            </feMerge>
        </filter>
    </defs>
    <path fill="#1B8BD2" fill-rule="evenodd" d="M14 0c6.628 0 12 5.373 12 12s-5.372 12-12 12C7.373 24 2 18.627 2 12S7.373 0 14 0z" filter="url(#a)"/>
    <path fill="#FFF" fill-rule="evenodd" d="M20.757 17.428c-.216.371-.563.575-.976.575h-8.817a1.1 1.1 0 0 1-.977-.575c-.285-.489-.283-1.19.008-1.702l.076-.133c.283-.503.945-1.679 1.629-2.682.228-.337.459-.651.668-.935.335-.456.75-1.021.755-1.19-.025-.737-.009-2.481-.002-3.02h-.579v-.765h5.518v.765h-.436c.006.538.024 2.283-.002 3.021.004.168.42.733.755 1.188.209.285.44.599.669.936.683 1.003 1.345 2.179 1.628 2.682l.076.132c.291.513.293 1.214.007 1.703zm-.56-1.391l-.076-.136c-.279-.495-.931-1.655-1.599-2.635-.225-.33-.451-.638-.656-.918-.584-.795-.889-1.226-.877-1.583.023-.656.01-2.182.003-2.842h-3.238c-.008.659-.019 2.186.004 2.842.011.357-.294.788-.878 1.583-.206.28-.432.588-.656.918-.669.98-1.321 2.14-1.6 2.635l-.076.136c-.179.316-.185.778-.012 1.072.1.173.245.262.428.262h8.817a.476.476 0 0 0 .429-.262c.172-.294.168-.756-.013-1.072zm-.932 1.175H11.481a.646.646 0 0 1-.574-.338 1.049 1.049 0 0 1 .005-1.001l.045-.079c.165-.294.554-.985.956-1.576.103-.151.205-.292.303-.425h6.313c.098.134.2.274.304.425.401.591.79 1.282.957 1.576l.043.079c.172.302.173.713.006 1.001a.648.648 0 0 1-.574.338zm-10.066-.504a.722.722 0 0 1-.315-.555v-3.619h1.43v1.669a53.844 53.844 0 0 0-.825 1.422l-.075.133a1.78 1.78 0 0 0-.215.95zm2.303-4.31a23.028 23.028 0 0 0-.649.943V9.072H8.344v7.041c0 .011.031.918.959 1.127.028.076.061.15.101.22.122.208.287.361.481.459-.058.004-.112.013-.174.013-1.644 0-2.015-1.347-2.015-1.818V9.072h-.695V7.734h4.96v.064h.237v1.274h-.696v3.326z"/>
</svg>
