<svg xmlns="http://www.w3.org/2000/svg" width="20" height="23">
    <path fill="#FFF" fill-rule="evenodd" d="M18.937 19.883a.475.475 0 0 1-.412.242H.475a.471.471 0 0 1-.412-.243.477.477 0 0 1 .006-.483l1.63-2.743a8.201 8.201 0 0 0 1.151-4.191v-2.402a6.709 6.709 0 0 1 4.749-6.426v-1.72C7.599.86 8.452 0 9.499 0c1.048 0 1.9.86 1.9 1.917v1.72a6.708 6.708 0 0 1 4.75 6.426v2.402c0 1.476.399 2.926 1.151 4.192l1.632 2.743c.088.147.09.333.005.483zM9.499 23c-1.321 0-2.455-.788-2.991-1.917h5.983C11.955 22.212 10.821 23 9.499 23z"/>
</svg>
