<svg xmlns="http://www.w3.org/2000/svg" width="36" height="42">
    <path fill="#D8630B" fill-rule="evenodd" d="M5.49 21.974a2.665 2.665 0 0 0 1.356 2.093 8.798 8.798 0 0 0 2.051.829 21.695 21.695 0 0 1-2.41 5.305c-1.226 1.955-1.24 4.314-.038 6.474 1.77 3.182 5.679 5.32 9.729 5.32 2.78 0 5.253-1.276 6.96-3.594 2.441-3.314 2.983-8.206 1.446-13.081-1.423-4.52.481-6.931 1.741-7.968a5.69 5.69 0 0 0 3.959 1.595c3.155 0 5.713-2.55 5.713-5.696 0-3.145-2.558-5.695-5.713-5.695-3.156 0-5.714 2.55-5.714 5.695 0 .443.056.872.152 1.286-2.38 1.734-5.125 5.639-3.204 11.742 1.211 3.849.841 7.767-.971 10.226-.768 1.044-2.151 2.287-4.37 2.287-2.871 0-5.716-1.509-6.917-3.67-.444-.798-.811-2.004-.046-3.224a24.858 24.858 0 0 0 2.966-6.817 8.563 8.563 0 0 0 2.765-.921 2.66 2.66 0 0 0 1.389-2.014c3.774-3.402 5.518-9.531 5.618-9.89a1.598 1.598 0 0 0-.794-1.836c.523-4.6-1.186-6.919-2.217-7.864a1.154 1.154 0 0 0-.489-1.169L16.558.153a.949.949 0 0 0-1.388.366l-.902 1.739c-.272.524-.033 1.085.535 1.251l2.142.63c.544.16 1.194-.099 1.501-.573.854.896 2.083 2.891 1.659 6.697a1.603 1.603 0 0 0-1.251 1.141c-.513 1.841-1.999 5.644-4.206 7.923a2.679 2.679 0 0 0-2.227.123 3.042 3.042 0 0 1-1.39.384h-.097c-.494-.011-.975-.15-1.469-.424a2.66 2.66 0 0 0-2.195-.179c-2.158-2.29-3.613-6.012-4.119-7.827a1.605 1.605 0 0 0-1.25-1.14c-.425-3.806.804-5.801 1.66-6.698.307.475.957.733 1.5.574l2.142-.63c.567-.167.808-.728.535-1.251L6.836.519A.949.949 0 0 0 5.448.154L3.552 1.389c-.39.253-.566.726-.488 1.168C2.035 3.502.324 5.82.846 10.422a1.598 1.598 0 0 0-.793 1.836c.098.351 1.789 6.285 5.437 9.716zm24.794-10.947c1.232 0 2.232.995 2.232 2.224 0 1.23-1 2.225-2.232 2.225a2.228 2.228 0 0 1-2.233-2.225c0-1.229 1-2.224 2.233-2.224z"/>
    <path fill="#F78631" fill-rule="evenodd" d="M24.722 14.537c-2.38 1.734-5.125 5.639-3.204 11.742 1.211 3.849.841 7.767-.971 10.226-.768 1.044-2.151 2.287-4.37 2.287-2.871 0-5.716-1.509-6.917-3.67-.444-.798-.811-2.004-.046-3.224a24.858 24.858 0 0 0 2.966-6.817 8.563 8.563 0 0 0 2.765-.921 2.66 2.66 0 0 0 1.389-2.014c3.774-3.402 5.518-9.531 5.618-9.89a1.598 1.598 0 0 0-.794-1.836c.523-4.6-1.186-6.919-2.217-7.864a1.154 1.154 0 0 0-.489-1.169L16.558.153a.949.949 0 0 0-1.388.366l-.902 1.739c-.272.524-.033 1.085.535 1.251l2.142.63c.544.16 1.194-.099 1.501-.573.854.896 2.083 2.891 1.659 6.697a1.603 1.603 0 0 0-1.251 1.141c-.513 1.841-1.999 5.644-4.206 7.923a2.679 2.679 0 0 0-2.227.123 3.042 3.042 0 0 1-1.39.384h-.097c-.494-.011-.975-.15-1.469-.424a2.66 2.66 0 0 0-2.195-.179c-2.158-2.29-3.613-6.012-4.119-7.827a1.605 1.605 0 0 0-1.25-1.14c-.425-3.806.804-5.801 1.66-6.698.307.475.957.733 1.5.574l2.142-.63c.567-.167.808-.728.535-1.251L6.836.519A.949.949 0 0 0 5.448.154L3.552 1.389c-.39.253-.566.726-.488 1.168C2.035 3.502.324 5.82.846 10.422a1.598 1.598 0 0 0-.793 1.836c.098.351 1.789 6.285 5.437 9.716a2.665 2.665 0 0 0 1.356 2.093 8.798 8.798 0 0 0 2.051.829 21.695 21.695 0 0 1-2.41 5.305c-1.226 1.955-1.24 4.314-.038 6.474 1.77 3.182 5.679 5.32 9.729 5.32 2.78 0 5.253-1.276 6.96-3.594 2.441-3.314 2.983-8.206 1.446-13.081-1.423-4.52.481-6.931 1.741-7.968"/>
</svg>
