<svg id="Appointments" xmlns="http://www.w3.org/2000/svg" xmlns:xlink="http://www.w3.org/1999/xlink" width="115" height="115" viewBox="0 0 115 115">
  <metadata><?xpacket begin="﻿" id="W5M0MpCehiHzreSzNTczkc9d"?>
<x:xmpmeta xmlns:x="adobe:ns:meta/" x:xmptk="Adobe XMP Core 5.6-c140 79.160451, 2017/05/06-01:08:21        ">
   <rdf:RDF xmlns:rdf="http://www.w3.org/1999/02/22-rdf-syntax-ns#">
      <rdf:Description rdf:about=""/>
   </rdf:RDF>
</x:xmpmeta>
                                                                                                    
                                                                                                    
                                                                                                    
                                                                                                    
                                                                                                    
                                                                                                    
                                                                                                    
                                                                                                    
                                                                                                    
                                                                                                    
                                                                                                    
                                                                                                    
                                                                                                    
                                                                                                    
                                                                                                    
                                                                                                    
                                                                                                    
                                                                                                    
                                                                                                    
                                                                                                    
                           
<?xpacket end="w"?></metadata>
<defs>
    <style>
      .cls-1 {
        fill: #f78631;
        filter: url(#filter);
      }

      .cls-2 {
        fill: #fff;
        fill-rule: evenodd;
      }
    </style>
    <filter id="filter" x="0" y="0" width="115" height="115" filterUnits="userSpaceOnUse">
      <feOffset result="offset" dy="4" in="SourceAlpha"/>
      <feGaussianBlur result="blur" stdDeviation="2.828"/>
      <feFlood result="flood" flood-opacity="0.25"/>
      <feComposite result="composite" operator="in" in2="blur"/>
      <feBlend result="blend" in="SourceGraphic"/>
    </filter>
  </defs>
  <circle class="cls-1" cx="57" cy="53" r="50"/>
  <path id="_-e-Forma_1_copy_4" data-name="-e-Forma 1 copy 4" class="cls-2" d="M2650.62,1621.37a1.059,1.059,0,0,0-1.07-1.04h-3.72a1.059,1.059,0,0,0-1.07,1.04v3.65a1.059,1.059,0,0,0,1.07,1.04h3.72a1.059,1.059,0,0,0,1.07-1.04v-3.65h0Zm9.31,0a1.059,1.059,0,0,0-1.07-1.04h-3.72a1.059,1.059,0,0,0-1.07,1.04v3.65a1.059,1.059,0,0,0,1.07,1.04h3.72a1.059,1.059,0,0,0,1.07-1.04v-3.65Zm9.31,0a1.052,1.052,0,0,0-1.07-1.04h-3.72a1.059,1.059,0,0,0-1.07,1.04v3.65a1.059,1.059,0,0,0,1.07,1.04h3.72a1.052,1.052,0,0,0,1.07-1.04v-3.65Zm-18.62,9.11a1.052,1.052,0,0,0-1.07-1.04h-3.72a1.052,1.052,0,0,0-1.07,1.04v3.64a1.052,1.052,0,0,0,1.07,1.04h3.72a1.052,1.052,0,0,0,1.07-1.04v-3.64h0Zm9.31,0a1.052,1.052,0,0,0-1.07-1.04h-3.72a1.052,1.052,0,0,0-1.07,1.04v3.64a1.052,1.052,0,0,0,1.07,1.04h3.72a1.052,1.052,0,0,0,1.07-1.04v-3.64Zm9.31,0a1.044,1.044,0,0,0-1.06-1.04h-3.73a1.052,1.052,0,0,0-1.07,1.04v3.64a1.052,1.052,0,0,0,1.07,1.04h3.73a1.044,1.044,0,0,0,1.06-1.04v-3.64h0Zm6.66-29.36v5.57a4.593,4.593,0,0,1-4.65,4.54h-2.94a4.628,4.628,0,0,1-4.69-4.54v-5.59h-13.24v5.59a4.619,4.619,0,0,1-4.68,4.54h-2.94a4.6,4.6,0,0,1-4.66-4.54v-5.57a4.187,4.187,0,0,0-4.09,4.12v32.61a4.183,4.183,0,0,0,4.21,4.14h37.56a4.183,4.183,0,0,0,4.21-4.14v-32.61A4.187,4.187,0,0,0,2675.9,1601.12Zm-1.36,34.69a1.808,1.808,0,0,1-1.82,1.79h-31.51a1.8,1.8,0,0,1-1.82-1.79v-16.84a1.8,1.8,0,0,1,1.82-1.78h31.51a1.806,1.806,0,0,1,1.82,1.78v16.84h0Zm-31.8-27.57h2.91a1.571,1.571,0,0,0,1.6-1.56v-9.12a1.577,1.577,0,0,0-1.6-1.56h-2.91a1.581,1.581,0,0,0-1.59,1.56v9.12A1.575,1.575,0,0,0,2642.74,1608.24Zm25.53,0h2.91a1.569,1.569,0,0,0,1.59-1.56v-9.12a1.575,1.575,0,0,0-1.59-1.56h-2.91a1.584,1.584,0,0,0-1.6,1.56v9.12A1.577,1.577,0,0,0,2668.27,1608.24Z" transform="translate(-2600 -1566)"/>
</svg>
