<svg xmlns="http://www.w3.org/2000/svg" width="69" height="70">
    <path fill="#FFF" fill-rule="evenodd" d="M57.988 43.484c-2.492-2.466-5.603-2.466-8.081 0a484.972 484.972 0 0 0-5.632 5.662c-.51.525-.937.637-1.557.287-1.222-.668-2.523-1.209-3.697-1.941-5.476-3.452-10.063-7.889-14.127-12.885-2.016-2.481-3.808-5.138-5.063-8.128-.254-.605-.205-1.002.286-1.495 1.889-1.83 3.73-3.707 5.588-5.583 2.586-2.609 2.586-5.664-.018-8.288-1.476-1.496-2.951-2.959-4.427-4.455-1.525-1.527-3.032-3.07-4.571-4.581-2.493-2.433-5.603-2.433-8.079.016C6.706 3.97 4.88 5.895 2.944 7.74 1.15 9.442.245 11.526.055 13.96c-.302 3.96.668 7.699 2.032 11.342 2.793 7.539 7.048 14.237 12.204 20.377 6.969 8.304 15.286 14.873 25.016 19.613 4.381 2.132 8.92 3.771 13.857 4.041 3.396.191 6.347-.669 8.712-3.325 1.619-1.813 3.445-3.468 5.159-5.202 2.539-2.577 2.555-5.695.032-8.24-3.015-3.038-6.047-6.06-9.079-9.082z"/>
</svg>
