<svg id="_-e-call" data-name="-e-call" xmlns="http://www.w3.org/2000/svg" width="40" height="40" viewBox="0 0 40 40">
  <metadata><?xpacket begin="﻿" id="W5M0MpCehiHzreSzNTczkc9d"?>
<x:xmpmeta xmlns:x="adobe:ns:meta/" x:xmptk="Adobe XMP Core 5.6-c140 79.160451, 2017/05/06-01:08:21        ">
   <rdf:RDF xmlns:rdf="http://www.w3.org/1999/02/22-rdf-syntax-ns#">
      <rdf:Description rdf:about=""/>
   </rdf:RDF>
</x:xmpmeta>
                                                                                                    
                                                                                                    
                                                                                                    
                                                                                                    
                                                                                                    
                                                                                                    
                                                                                                    
                                                                                                    
                                                                                                    
                                                                                                    
                                                                                                    
                                                                                                    
                                                                                                    
                                                                                                    
                                                                                                    
                                                                                                    
                                                                                                    
                                                                                                    
                                                                                                    
                                                                                                    
                           
<?xpacket end="w"?></metadata>
<defs>
    <style>
      .cls-1 {
        fill: #f78631;
      }

      .cls-1, .cls-2 {
        fill-rule: evenodd;
      }

      .cls-2 {
        fill: #c66b27;
      }
    </style>
  </defs>
  <path class="cls-1" d="M345.411,484.46a2.8,2.8,0,0,0-4.237,0c-0.99.982-1.981,1.965-2.954,2.964a0.585,0.585,0,0,1-.816.149c-0.641-.349-1.323-0.632-1.94-1.015a30.727,30.727,0,0,1-7.407-6.742,17.559,17.559,0,0,1-2.655-4.253,0.61,0.61,0,0,1,.149-0.783c0.991-.957,1.956-1.939,2.93-2.921a2.814,2.814,0,0,0-.008-4.337c-0.774-.782-1.549-1.548-2.322-2.331-0.8-.8-1.59-1.606-2.4-2.4a2.82,2.82,0,0,0-4.236.009c-1,.982-1.956,1.989-2.972,2.954a4.825,4.825,0,0,0-1.515,3.255,13.791,13.791,0,0,0,1.065,5.935,36.092,36.092,0,0,0,6.4,10.662,39.63,39.63,0,0,0,13.118,10.263,18.986,18.986,0,0,0,7.267,2.114,5.328,5.328,0,0,0,4.57-1.739c0.849-.949,1.8-1.815,2.7-2.722a2.832,2.832,0,0,0,.017-4.312Q347.8,486.828,345.411,484.46Z" transform="translate(-315 -458)"/>
  <path class="cls-2" d="M343.822,477.827l3.07-.525a13.784,13.784,0,0,0-11.66-11.312l-0.433,3.088A10.655,10.655,0,0,1,343.822,477.827Zm4.8-13.351A22.65,22.65,0,0,0,335.639,458l-0.433,3.088a19.76,19.76,0,0,1,16.723,16.206l3.071-.525A22.816,22.816,0,0,0,348.624,464.476Z" transform="translate(-315 -458)"/>
</svg>
