<svg xmlns="http://www.w3.org/2000/svg" width="41" height="33">
    <path fill="#D8630B" fill-rule="evenodd" d="M38.691 27.813h-.664v4.216a.97.97 0 0 1-.968.971.969.969 0 0 1-.684-.284l-4.883-4.903H19.44a2.316 2.316 0 0 1-2.31-2.318V14.194a2.316 2.316 0 0 1 2.31-2.317h19.251A2.315 2.315 0 0 1 41 14.194v11.301a2.316 2.316 0 0 1-2.309 2.318zm.375-13.619a.376.376 0 0 0-.375-.375H19.44a.375.375 0 0 0-.375.375v11.301c0 .208.168.376.375.376h12.454c.243 0 .466.092.636.241l.039.036.011.011 3.512 3.526s.002-2.896.004-2.918a.968.968 0 0 1 .963-.896h1.632a.376.376 0 0 0 .375-.376V14.194zm-5.507 6.622a.97.97 0 0 1-.967-.971.97.97 0 0 1 .967-.971.97.97 0 0 1 .967.971.97.97 0 0 1-.967.971zm-4.494 0a.97.97 0 0 1-.967-.971.97.97 0 0 1 .967-.971c.535 0 .967.435.967.971a.969.969 0 0 1-.967.971zm-4.494 0a.97.97 0 0 1-.967-.971.97.97 0 0 1 .967-.971.97.97 0 0 1 .967.971.97.97 0 0 1-.967.971zm.291-12.454H7.259a.97.97 0 0 1-.967-.971c0-.537.433-.971.967-.971h17.603c.534 0 .967.434.967.971a.97.97 0 0 1-.967.971zM7.259 12.839h6.681a.97.97 0 0 1 .967.971.969.969 0 0 1-.967.971H7.259a.969.969 0 0 1-.967-.971.97.97 0 0 1 .967-.971z"/>
    <path fill="#F78631" fill-rule="evenodd" d="M33.559 20.816a.97.97 0 0 1-.967-.971.97.97 0 0 1 .967-.971.97.97 0 0 1 .967.971.97.97 0 0 1-.967.971zM31.154 9.644a.97.97 0 0 1-.967-.971V2.318a.375.375 0 0 0-.375-.376H2.309a.376.376 0 0 0-.375.376v16.565c0 .207.169.376.375.376h2.75c.505 0 .919.389.963.884.003.026.004 4.881.004 4.881l5.459-5.481a.97.97 0 0 1 .619-.281c.019-.002 1.836-.003 1.836-.003a.97.97 0 0 1 .967.971.97.97 0 0 1-.967.971h-1.37l-6.827 6.854a.967.967 0 0 1-1.651-.687v-6.167H2.309A2.316 2.316 0 0 1 0 18.883V2.318A2.316 2.316 0 0 1 2.309 0h27.503a2.316 2.316 0 0 1 2.309 2.318v6.355a.97.97 0 0 1-.967.971zm-6.583 9.23a.97.97 0 0 1 .967.971.97.97 0 0 1-.967.971.97.97 0 0 1-.967-.971.97.97 0 0 1 .967-.971zM7.259 12.839h6.681a.97.97 0 0 1 .967.971.969.969 0 0 1-.967.971H7.259a.969.969 0 0 1-.967-.971.97.97 0 0 1 .967-.971zm0-4.477a.97.97 0 0 1-.967-.971c0-.537.433-.971.967-.971h17.603c.534 0 .967.434.967.971a.97.97 0 0 1-.967.971H7.259zm21.806 10.512c.535 0 .967.435.967.971a.969.969 0 0 1-.967.971.97.97 0 0 1-.967-.971.97.97 0 0 1 .967-.971z"/>
</svg>
