<svg xmlns="http://www.w3.org/2000/svg" width="18" height="18">
    <path fill="#F78631" fill-rule="evenodd" d="M18.007.598l-.001.003v3.361a.6.6 0 1 1-1.199 0V2.016l-4.571 4.573c1.017 1.209 1.654 2.749 1.654 4.45 0 3.834-3.115 6.952-6.946 6.952-3.829 0-6.945-3.118-6.945-6.952 0-3.833 3.116-6.952 6.945-6.952 1.698 0 3.236.637 4.444 1.653l4.537-4.541h-2.442a.602.602 0 0 1 0-1.202h3.924a.598.598 0 0 1 .6.601zM6.944 5.289a5.753 5.753 0 0 0-5.744 5.75c0 3.17 2.577 5.75 5.744 5.75a5.754 5.754 0 0 0 5.745-5.75 5.753 5.753 0 0 0-5.745-5.75z"/>
</svg>
