<svg xmlns="http://www.w3.org/2000/svg" width="11.47" height="11" viewBox="0 0 11.47 11">
  <metadata><?xpacket begin="﻿" id="W5M0MpCehiHzreSzNTczkc9d"?>
<x:xmpmeta xmlns:x="adobe:ns:meta/" x:xmptk="Adobe XMP Core 5.6-c140 79.160451, 2017/05/06-01:08:21        ">
   <rdf:RDF xmlns:rdf="http://www.w3.org/1999/02/22-rdf-syntax-ns#">
      <rdf:Description rdf:about=""/>
   </rdf:RDF>
</x:xmpmeta>
                                                                                                    
                                                                                                    
                                                                                                    
                                                                                                    
                                                                                                    
                                                                                                    
                                                                                                    
                                                                                                    
                                                                                                    
                                                                                                    
                                                                                                    
                                                                                                    
                                                                                                    
                                                                                                    
                                                                                                    
                                                                                                    
                                                                                                    
                                                                                                    
                                                                                                    
                                                                                                    
                           
<?xpacket end="w"?></metadata>
<defs>
    <style>
      .cls-1 {
        fill: #c4c4c4;
      }

      .cls-1, .cls-2 {
        fill-rule: evenodd;
      }

      .cls-2 {
        fill: #f78631;
      }
    </style>
  </defs>
  <path id="_-e-Forma_1_copy_7" data-name="-e-Forma 1 copy 7" class="cls-1" d="M1906.75,250.983a0.822,0.822,0,0,0,.2-0.844,0.8,0.8,0,0,0-.66-0.56l-2.78-.4a0.365,0.365,0,0,1-.27-0.2l-1.24-2.518a0.817,0.817,0,0,0-.74-0.459,0.828,0.828,0,0,0-.74.459l-1.24,2.518a0.348,0.348,0,0,1-.27.2l-2.78.4a0.8,0.8,0,0,0-.66.56,0.822,0.822,0,0,0,.2.844l2.01,1.96a0.357,0.357,0,0,1,.11.322l-0.48,2.768a0.826,0.826,0,0,0,1.2.868l2.48-1.307a0.374,0.374,0,0,1,.34,0l2.48,1.307a0.829,0.829,0,0,0,1.02-.2,0.8,0.8,0,0,0,.18-0.667l-0.48-2.768a0.357,0.357,0,0,1,.11-0.322Z" transform="translate(-1895.53 -246)"/>
  <path id="_-e-Forma_1_copy_7-2" data-name="-e-Forma 1 copy 7" class="cls-2" d="M1906.75,250.983a0.822,0.822,0,0,0,.2-0.844,0.8,0.8,0,0,0-.66-0.56l-2.78-.4a0.365,0.365,0,0,1-.27-0.2l-1.24-2.518a0.817,0.817,0,0,0-.74-0.459,0.828,0.828,0,0,0-.74.459l-1.24,2.518a0.348,0.348,0,0,1-.27.2l-2.78.4a0.8,0.8,0,0,0-.66.56,0.822,0.822,0,0,0,.2.844l2.01,1.96a0.357,0.357,0,0,1,.11.322l-0.48,2.768a0.826,0.826,0,0,0,1.2.868l2.48-1.307a0.374,0.374,0,0,1,.34,0l2.48,1.307a0.829,0.829,0,0,0,1.02-.2,0.8,0.8,0,0,0,.18-0.667l-0.48-2.768a0.357,0.357,0,0,1,.11-0.322Z" transform="translate(-1895.53 -246)"/>
</svg>
