<svg xmlns="http://www.w3.org/2000/svg" width="18" height="17">
    <path fill="#757575" fill-rule="evenodd" d="M16.315 8.269h-1.419v8.003c0 .437-.284.728-.709.728H2.837c-.425 0-.709-.291-.709-.728V8.269H.709c-.638 0-.993-.946-.425-1.31l7.803-5.821c.283-.219.567-.219.851 0l7.803 5.821c.567.364.212 1.31-.426 1.31zM8.512 6.813c-2.341 0-4.256 1.965-4.256 4.366s1.915 4.366 4.256 4.366 4.256-1.965 4.256-4.366-1.915-4.366-4.256-4.366zm1.064 7.64H7.448V12.27H5.32v-2.182h2.128V7.905h2.128v2.183h2.128v2.182H9.576v2.183z"/>
</svg>
