<svg xmlns="http://www.w3.org/2000/svg" width="32" height="32">
    <defs>
        <linearGradient id="a" x1="0%" x2="0%" y1="100%" y2="0%">
            <stop offset="0%" stop-color="#5D55C9"/>
            <stop offset="25%" stop-color="#A235A5"/>
            <stop offset="46%" stop-color="#CE3082"/>
            <stop offset="73%" stop-color="#E93F58"/>
            <stop offset="100%" stop-color="#F5792D"/>
        </linearGradient>
    </defs>
    <path fill="#EE0080" fill-rule="evenodd" d="M15.999 31.995c-8.82 0-15.995-7.176-15.995-15.996S7.179.004 15.999.004s15.996 7.175 15.996 15.995-7.176 15.996-15.996 15.996zm9.097-17.862v-3.714a3.52 3.52 0 0 0-3.516-3.516H10.418a3.52 3.52 0 0 0-3.516 3.516v11.162a3.52 3.52 0 0 0 3.516 3.517H21.58a3.52 3.52 0 0 0 3.516-3.517v-7.448zm-3.517 9.19H10.418a1.743 1.743 0 0 1-1.744-1.742v-7.448h2.716a4.93 4.93 0 0 0-.366 1.866 4.981 4.981 0 0 0 4.975 4.976 4.981 4.981 0 0 0 4.976-4.976c0-.66-.134-1.29-.369-1.866h2.717v7.448c0 .963-.782 1.742-1.744 1.742zM19.907 9.008l2.682-.009.402-.001v3.084l-3.074.01-.01-3.084zm-3.908 10.194a3.207 3.207 0 0 1-3.203-3.203 3.189 3.189 0 0 1 .606-1.867 3.2 3.2 0 0 1 2.597-1.335c1.068 0 2.014.529 2.597 1.336.378.525.606 1.169.606 1.866a3.208 3.208 0 0 1-3.203 3.203z"/>
    <path fill="url(#a)" d="M15.999 31.995c-8.82 0-15.995-7.176-15.995-15.996S7.179.004 15.999.004s15.996 7.175 15.996 15.995-7.176 15.996-15.996 15.996zm9.097-17.862v-3.714a3.52 3.52 0 0 0-3.516-3.516H10.418a3.52 3.52 0 0 0-3.516 3.516v11.162a3.52 3.52 0 0 0 3.516 3.517H21.58a3.52 3.52 0 0 0 3.516-3.517v-7.448zm-3.517 9.19H10.418a1.743 1.743 0 0 1-1.744-1.742v-7.448h2.716a4.93 4.93 0 0 0-.366 1.866 4.981 4.981 0 0 0 4.975 4.976 4.981 4.981 0 0 0 4.976-4.976c0-.66-.134-1.29-.369-1.866h2.717v7.448c0 .963-.782 1.742-1.744 1.742zM19.907 9.008l2.682-.009.402-.001v3.084l-3.074.01-.01-3.084zm-3.908 10.194a3.207 3.207 0 0 1-3.203-3.203 3.189 3.189 0 0 1 .606-1.867 3.2 3.2 0 0 1 2.597-1.335c1.068 0 2.014.529 2.597 1.336.378.525.606 1.169.606 1.866a3.208 3.208 0 0 1-3.203 3.203z"/>
</svg>
