<svg xmlns="http://www.w3.org/2000/svg" width="27" height="29">
    <path fill="#C66B27" fill-rule="evenodd" d="M25.883 20.201c-1.555 3.149-4.835 5.232-5.404 5.588-.387.242-.545 1.646-.606 2.519-.028.411-.143.691-.601.691h-2.963c-.745 0-.771-.443-.771-.655.005-5.564-.298-6.27 3.673-10.787 1.206-1.372 1.376-3.525 2.198-4.56.689-.868 1.784-.448 1.915.312.201 1.176-1.071 4.642-1.713 5.754-.16.277.127.788.621.348.496-.441 2.464-4.925 1.698-7.886-.376-1.449.592-2.964 1.833-2.199 1.241.766 1.962 7.144.12 10.875zm-15.192 8.798H7.729c-.46 0-.573-.28-.603-.691-.061-.873-.217-2.277-.605-2.519-.569-.356-3.85-2.439-5.404-5.588-1.842-3.731-1.121-10.109.12-10.875 1.241-.765 2.209.75 1.834 2.199-.767 2.961 1.201 7.445 1.696 7.886.495.44.782-.071.621-.348-.641-1.112-1.914-4.578-1.712-5.754.13-.76 1.225-1.18 1.915-.312.822 1.035.991 3.188 2.197 4.56 3.972 4.517 3.669 5.223 3.675 10.787 0 .212-.027.655-.772.655z"/>
    <path fill="#F78631" fill-rule="evenodd" d="M17.366 0c-1.526 0-2.91.604-3.923 1.583A5.628 5.628 0 0 0 9.52 0C6.414 0 3.897 2.497 3.897 5.577c0 1.196.38 2.303 1.027 3.211.258.399.566.762.918 1.079l5.834 5.794c.584.58 1.168 1.159 1.753 1.159l.014-.001.015.001c.584 0 1.169-.579 1.752-1.159l5.835-5.794a5.35 5.35 0 0 0 .917-1.079 5.512 5.512 0 0 0 1.027-3.211c0-3.08-2.518-5.577-5.623-5.577z"/>
</svg>
