<svg xmlns="http://www.w3.org/2000/svg" width="30" height="25">
    <path fill="#F78631" fill-rule="evenodd" d="M8.297 12.5l2.08-4.547a.753.753 0 0 1 .718-.438.755.755 0 0 1 .682.492l3.323 9.1 3.115-6.667a.76.76 0 0 1 1.242-.191l2.089 2.251h6.38c1.41-3.098 1.224-5.543.777-7.108-.908-3.174-3.878-5.391-7.222-5.391-.469 0-.947.042-1.42.127-1.925.342-3.489 1.349-4.527 2.911-.193.29-.367.6-.519.924a7.228 7.228 0 0 0-.52-.924C13.458 1.477 11.892.47 9.968.128A8.058 8.058 0 0 0 8.549.001c-3.345 0-6.314 2.217-7.222 5.391-.449 1.565-.633 4.01.776 7.108h6.194z"/>
    <path fill="#C66B27" fill-rule="evenodd" d="M21.213 13.991a.758.758 0 0 1-.556-.242l-1.546-1.666-3.411 7.299a.756.756 0 0 1-.685.434l-.033-.001a.754.754 0 0 1-.678-.492l-3.317-9.081-1.514 3.31a.757.757 0 0 1-.689.439H2.88c2.153 3.658 6.096 7.319 11.727 10.89a.76.76 0 0 0 .816 0c5.631-3.57 9.574-7.232 11.726-10.89h-5.936z"/>
</svg>
