<svg xmlns="http://www.w3.org/2000/svg" width="29" height="29">
    <path fill="#0074B8" fill-rule="evenodd" d="M14.5 0C6.492 0 0 6.492 0 14.5S6.492 29 14.5 29 29 22.508 29 14.5C29 6.491 22.508 0 14.5 0zm-3.625 21.523H7.25V8.836h3.625v12.687zm-1.7-13.465a1.699 1.699 0 1 1 0-3.398 1.699 1.699 0 0 1 0 3.398zm14.388 13.465h-3.625v-7.844c0-.919-.263-1.562-1.392-1.562-1.872 0-2.233 1.562-2.233 1.562v7.844h-3.625V8.836h3.625v1.212a6.068 6.068 0 0 1 3.625-1.21c1.175 0 3.625.703 3.625 4.951v7.734z"/>
</svg>
