<svg xmlns="http://www.w3.org/2000/svg" width="13" height="13" viewBox="0 0 13 13">
  <metadata><?xpacket begin="﻿" id="W5M0MpCehiHzreSzNTczkc9d"?>
<x:xmpmeta xmlns:x="adobe:ns:meta/" x:xmptk="Adobe XMP Core 5.6-c140 79.160451, 2017/05/06-01:08:21        ">
   <rdf:RDF xmlns:rdf="http://www.w3.org/1999/02/22-rdf-syntax-ns#">
      <rdf:Description rdf:about=""/>
   </rdf:RDF>
</x:xmpmeta>
                                                                                                    
                                                                                                    
                                                                                                    
                                                                                                    
                                                                                                    
                                                                                                    
                                                                                                    
                                                                                                    
                                                                                                    
                                                                                                    
                                                                                                    
                                                                                                    
                                                                                                    
                                                                                                    
                                                                                                    
                                                                                                    
                                                                                                    
                                                                                                    
                                                                                                    
                                                                                                    
                           
<?xpacket end="w"?></metadata>
<defs>
    <style>
      .cls-1 {
        fill: #f78631;
        fill-rule: evenodd;
      }
    </style>
  </defs>
  <path id="_-e-Shape_1_copy" data-name="-e-Shape 1 copy" class="cls-1" d="M1828.01,1264.95a5.025,5.025,0,1,0,5.02,5.03A5.03,5.03,0,0,0,1828.01,1264.95Zm0,9.18a4.155,4.155,0,1,1,4.15-4.15A4.15,4.15,0,0,1,1828.01,1274.13Zm7.82-11.98a0.441,0.441,0,0,0-.62,0l-4.24,4.25a0.435,0.435,0,1,0,.62.61l4.24-4.24A0.441,0.441,0,0,0,1835.83,1262.15Zm-0.26-.15a0.435,0.435,0,0,0-.44.43v2.43a0.444,0.444,0,0,0,.44.44,0.435,0.435,0,0,0,.43-0.44v-2.43A0.427,0.427,0,0,0,1835.57,1262Zm0,0h-2.84a0.433,0.433,0,0,0-.43.43,0.442,0.442,0,0,0,.43.44h2.84a0.435,0.435,0,0,0,.43-0.44A0.427,0.427,0,0,0,1835.57,1262Z" transform="translate(-1823 -1262)"/>
</svg>
