<svg xmlns="http://www.w3.org/2000/svg" width="32" height="32">
    <path fill-rule="evenodd" d="M31.879 20.294a.54.54 0 0 1-.673.362.532.532 0 0 1-.368-.662 1.841 1.841 0 0 0 .054-.821.534.534 0 0 1 .45-.611.541.541 0 0 1 .622.442 2.882 2.882 0 0 1-.085 1.29zm-5.71-7.224l-3.507-3.886c-1.887-2.09-1.887-5.491 0-7.581C23.595.569 24.841 0 26.169 0c1.329 0 2.574.569 3.508 1.603 1.887 2.09 1.887 5.491 0 7.581l-3.508 3.886zm2.696-10.759c-.725-.803-1.682-1.244-2.696-1.244-1.014 0-1.971.441-2.696 1.244-1.534 1.7-1.534 4.466 0 6.165l2.696 2.988 2.696-2.988c1.534-1.699 1.534-4.465 0-6.165zM26.303 8c-1.645 0-2.984-1.316-2.984-2.933 0-1.617 1.339-2.934 2.984-2.934s2.984 1.317 2.984 2.934C29.287 6.684 27.948 8 26.303 8zm0-4.8c-1.047 0-1.899.837-1.899 1.867 0 1.029.852 1.866 1.899 1.866 1.047 0 1.899-.837 1.899-1.866 0-1.03-.852-1.867-1.899-1.867zm-5.774 14.4h-1.086a.537.537 0 0 1-.542-.533c0-.295.243-.534.542-.534h1.086c.3 0 .543.239.543.534a.538.538 0 0 1-.543.533zm-.466-4.8h-1.085a.538.538 0 0 1-.543-.533c0-.295.243-.534.543-.534h1.085c.3 0 .543.239.543.534a.538.538 0 0 1-.543.533zm-2.679 11.114a.544.544 0 0 1-.635.424.533.533 0 0 1-.431-.624c.084-.432.262-.83.527-1.185a.55.55 0 0 1 .759-.114.528.528 0 0 1 .116.746 1.83 1.83 0 0 0-.336.753zm-.111-6.314h-.194a3.048 3.048 0 0 1-1.065-.193.531.531 0 0 1-.314-.688.548.548 0 0 1 .701-.308c.216.081.444.122.679.122h.193c.3 0 .542.239.542.534a.537.537 0 0 1-.542.533zm-.405-4.788a1.895 1.895 0 0 0-.789.268.546.546 0 0 1-.748-.171.527.527 0 0 1 .173-.735c.38-.233.799-.375 1.245-.423.3-.03.566.179.599.472a.538.538 0 0 1-.48.589zm-1.594 2.437a.532.532 0 0 1-.516.7.543.543 0 0 1-.515-.367 2.89 2.89 0 0 1-.124-1.286.538.538 0 0 1 .606-.462.534.534 0 0 1 .47.595 1.844 1.844 0 0 0 .079.82zM12.777 32h-1.085a.538.538 0 0 1-.543-.533c0-.295.243-.534.543-.534h1.085a.54.54 0 0 1 .543.534.538.538 0 0 1-.543.533zm-6.278-1.329l-4.627-5.137c-2.502-2.779-2.502-7.3 0-10.08 1.232-1.368 2.875-2.121 4.627-2.121 1.751 0 3.395.753 4.627 2.121 2.502 2.78 2.502 7.301 0 10.08l-4.627 5.137zm3.814-14.509C9.29 15.026 7.935 14.4 6.499 14.4s-2.791.626-3.814 1.762c-2.152 2.388-2.152 6.276 0 8.665L6.5 29.062l3.813-4.235c2.152-2.39 2.152-6.277 0-8.665zm-3.814 6.771c-1.795 0-3.256-1.435-3.256-3.2 0-1.764 1.461-3.2 3.256-3.2 1.795 0 3.255 1.436 3.255 3.2 0 1.765-1.46 3.2-3.255 3.2zm0-5.333c-1.197 0-2.17.957-2.17 2.133 0 1.177.973 2.134 2.17 2.134s2.17-.957 2.17-2.134c0-1.176-.973-2.133-2.17-2.133zm1.937 13.333h1.085c.3 0 .543.239.543.534a.537.537 0 0 1-.543.533H8.436a.537.537 0 0 1-.542-.533c0-.295.242-.534.542-.534zm6.511 0h1.086c.299 0 .542.239.542.534a.537.537 0 0 1-.542.533h-1.086a.538.538 0 0 1-.543-.533c0-.295.243-.534.543-.534zm2.847-5.467c.181.212.412.385.666.499a.53.53 0 0 1 .268.707.542.542 0 0 1-.494.311.562.562 0 0 1-.225-.048c-.4-.179-.761-.45-1.046-.782a.527.527 0 0 1 .067-.752.548.548 0 0 1 .764.065zm.409 5.467h1.085c.299 0 .542.239.542.534a.537.537 0 0 1-.542.533h-1.085a.537.537 0 0 1-.543-.533c0-.295.242-.534.543-.534zm.952-8.531l-.023.001a.538.538 0 0 1-.541-.512.536.536 0 0 1 .52-.554 2.13 2.13 0 0 1 .139-.004h.968c.3 0 .542.239.542.534a.537.537 0 0 1-.542.533l-1.063.002zm1.219 3.731h1.085c.3 0 .542.239.542.534a.537.537 0 0 1-.542.533h-1.085a.538.538 0 0 1-.543-.533c0-.295.243-.534.543-.534zm1.084 4.8h1.085c.3 0 .543.239.543.534a.537.537 0 0 1-.543.533h-1.085a.537.537 0 0 1-.542-.533c0-.295.242-.534.542-.534zm2.869-13.866a.537.537 0 0 1-.542.533h-1.086a.538.538 0 0 1-.543-.533c0-.295.243-.534.543-.534h1.086c.299 0 .542.239.542.534zm-1.939 4.266h1.085c.3 0 .543.239.543.534a.538.538 0 0 1-.543.533h-1.085a.537.537 0 0 1-.542-.533c0-.295.242-.534.542-.534zm-.154-9.6h1.085c.3 0 .542.239.542.534a.537.537 0 0 1-.542.533h-1.085a.537.537 0 0 1-.543-.533c0-.295.242-.534.543-.534zm1.395 14.4h1.085c.3 0 .543.239.543.534a.538.538 0 0 1-.543.533h-1.085a.537.537 0 0 1-.542-.533c0-.295.242-.534.542-.534zm1.084 4.8h1.047c.301 0 .562.239.562.533a.521.521 0 0 1-.524.533v-.533l-.016.533-1.069.001a.537.537 0 0 1-.542-.533c0-.295.242-.534.542-.534zm2.016-9.6c.3 0 .543.239.543.534a.538.538 0 0 1-.543.533h-1.085a.538.538 0 0 1-.543-.533c0-.295.243-.534.543-.534h1.085zm-.774-4.8h1.085c.3 0 .542.239.542.534a.537.537 0 0 1-.542.533h-1.085a.537.537 0 0 1-.543-.533c0-.295.242-.534.543-.534zm.404 10.146a.545.545 0 0 1 .727-.24c.395.193.747.474 1.02.815a.527.527 0 0 1-.091.749.551.551 0 0 1-.763-.089 1.887 1.887 0 0 0-.649-.52.53.53 0 0 1-.244-.715zm1.255 2.8a.542.542 0 0 1 .648-.403c.292.064.476.35.41.638a2.922 2.922 0 0 1-.565 1.167.547.547 0 0 1-.762.089.527.527 0 0 1-.091-.749c.176-.22.298-.47.36-.742zm.742-7.612c0-.295.243-.534.543-.534h.117c.254 0 .5-.048.733-.144a.547.547 0 0 1 .71.285.53.53 0 0 1-.29.698 3.009 3.009 0 0 1-1.153.228h-.117a.538.538 0 0 1-.543-.533zm1.609-4.017a1.879 1.879 0 0 0-.797-.245.535.535 0 0 1-.499-.573.54.54 0 0 1 .583-.49c.447.035.87.164 1.258.385a.53.53 0 0 1 .197.729.546.546 0 0 1-.742.194z"/>
</svg>
