<svg id="_-e-Group_14" data-name="-e-Group 14" xmlns="http://www.w3.org/2000/svg" width="20" height="26" viewBox="0 0 20 26">
  <metadata><?xpacket begin="﻿" id="W5M0MpCehiHzreSzNTczkc9d"?>
<x:xmpmeta xmlns:x="adobe:ns:meta/" x:xmptk="Adobe XMP Core 5.6-c140 79.160451, 2017/05/06-01:08:21        ">
   <rdf:RDF xmlns:rdf="http://www.w3.org/1999/02/22-rdf-syntax-ns#">
      <rdf:Description rdf:about=""/>
   </rdf:RDF>
</x:xmpmeta>
                                                                                                    
                                                                                                    
                                                                                                    
                                                                                                    
                                                                                                    
                                                                                                    
                                                                                                    
                                                                                                    
                                                                                                    
                                                                                                    
                                                                                                    
                                                                                                    
                                                                                                    
                                                                                                    
                                                                                                    
                                                                                                    
                                                                                                    
                                                                                                    
                                                                                                    
                                                                                                    
                           
<?xpacket end="w"?></metadata>
<defs>
    <style>
      .cls-1 {
        fill: #f78631;
      }

      .cls-1, .cls-2 {
        fill-rule: evenodd;
      }

      .cls-2 {
        fill: #c66b27;
      }
    </style>
  </defs>
  <path id="Forma_1" data-name="Forma 1" class="cls-1" d="M4120.69,1533.05h-0.77v2.28a0.762,0.762,0,0,1-.77.76h-12.3a0.762,0.762,0,0,1-.77-0.76v-2.28h-0.77a2.3,2.3,0,0,0-2.31,2.28v18.38a2.307,2.307,0,0,0,2.31,2.29h15.38a2.3,2.3,0,0,0,2.31-2.29v-18.38A2.292,2.292,0,0,0,4120.69,1533.05Zm-8.68,16.63-3.08,3.05a0.773,0.773,0,0,1-1.09,0l-1.54-1.52a0.76,0.76,0,0,1,0-1.08,0.773,0.773,0,0,1,1.09,0l0.99,0.98,2.54-2.5a0.773,0.773,0,0,1,1.09,0A0.749,0.749,0,0,1,4112.01,1549.68Zm0-5.38-3.08,3.05a0.792,0.792,0,0,1-1.09,0l-1.54-1.53a0.749,0.749,0,0,1,0-1.07,0.773,0.773,0,0,1,1.09,0l0.99,0.98,2.54-2.51a0.792,0.792,0,0,1,1.09,0A0.76,0.76,0,0,1,4112.01,1544.3Zm0-5.33-3.08,3.05a0.792,0.792,0,0,1-1.09,0l-1.54-1.53a0.761,0.761,0,0,1,0-1.08,0.792,0.792,0,0,1,1.09,0l0.99,0.99,2.54-2.51a0.773,0.773,0,0,1,1.09,0A0.761,0.761,0,0,1,4112.01,1538.97Zm7.14,12.46h-4.61a0.76,0.76,0,1,1,0-1.52h4.61A0.76,0.76,0,1,1,4119.15,1551.43Zm0-5.38h-4.61a0.765,0.765,0,1,1,0-1.53h4.61A0.765,0.765,0,1,1,4119.15,1546.05Zm0-5.34h-4.61a0.76,0.76,0,1,1,0-1.52h4.61A0.76,0.76,0,1,1,4119.15,1540.71Z" transform="translate(-4103 -1530)"/>
  <path id="Forma_1_copy" data-name="Forma 1 copy" class="cls-2" d="M4116.08,1531.52h-0.9a2.323,2.323,0,0,0-4.36,0h-0.9a2.3,2.3,0,0,0-2.3,2.29v0.76h10.76v-0.76A2.3,2.3,0,0,0,4116.08,1531.52Z" transform="translate(-4103 -1530)"/>
</svg>
