<svg xmlns="http://www.w3.org/2000/svg" width="74" height="60">
    <path fill="#FFF" fill-rule="evenodd" d="M9.582 37.038V26.431H4.117c-1.931 0-3.531 1.601-3.531 3.535V50.38c-.068 2.068 1.531 3.669 3.531 3.669h3.13v4.403c0 .601.534 1.134 1.135 1.134.333 0 .597-.133.799-.333l5.13-5.137h22.654c1.934 0 3.532-1.601 3.532-3.536v-5.07H18.043c-4.663 0-8.461-3.802-8.461-8.472z"/>
    <path fill="#FFF" fill-rule="evenodd" d="M68.016.414H18.043c-3.001 0-5.398 2.468-5.398 5.403v31.087c0 3.003 2.466 5.404 5.398 5.404h34.45l7.796 7.872c.332.333.731.534 1.2.534.93 0 1.731-.734 1.731-1.735v-6.671h4.796c2.998 0 5.399-2.468 5.399-5.404V5.817c0-3.002-2.465-5.403-5.399-5.403zm-42.31 26.751c-2.734 0-4.998-2.268-4.998-5.004 0-2.735 2.264-5.003 4.998-5.003 2.731 0 4.998 2.268 4.998 5.003 0 2.736-2.2 5.004-4.998 5.004zm17.524 0c-2.733 0-4.997-2.268-4.997-5.004 0-2.735 2.264-5.003 4.997-5.003 2.73 0 4.995 2.268 4.995 5.003 0 2.736-2.265 5.004-4.995 5.004zm17.455 0c-2.73 0-4.995-2.268-4.995-5.004 0-2.735 2.265-5.003 4.995-5.003 2.735 0 4.999 2.268 4.999 5.003 0 2.736-2.264 5.004-4.999 5.004z"/>
</svg>
