<svg id="_-e-Group_14" data-name="-e-Group 14" xmlns="http://www.w3.org/2000/svg" width="32" height="26" viewBox="0 0 32 26">
  <metadata><?xpacket begin="﻿" id="W5M0MpCehiHzreSzNTczkc9d"?>
<x:xmpmeta xmlns:x="adobe:ns:meta/" x:xmptk="Adobe XMP Core 5.6-c140 79.160451, 2017/05/06-01:08:21        ">
   <rdf:RDF xmlns:rdf="http://www.w3.org/1999/02/22-rdf-syntax-ns#">
      <rdf:Description rdf:about=""/>
   </rdf:RDF>
</x:xmpmeta>
                                                                                                    
                                                                                                    
                                                                                                    
                                                                                                    
                                                                                                    
                                                                                                    
                                                                                                    
                                                                                                    
                                                                                                    
                                                                                                    
                                                                                                    
                                                                                                    
                                                                                                    
                                                                                                    
                                                                                                    
                                                                                                    
                                                                                                    
                                                                                                    
                                                                                                    
                                                                                                    
                           
<?xpacket end="w"?></metadata>
<defs>
    <style>
      .cls-1 {
        fill: #c66b27;
      }

      .cls-1, .cls-2 {
        fill-rule: evenodd;
      }

      .cls-2 {
        fill: #f78631;
      }
    </style>
  </defs>
  <path id="Forma_1" data-name="Forma 1" class="cls-1" d="M3638.95,1448.09v-4.66h-2.4a1.566,1.566,0,0,0-1.55,1.56v8.96a1.544,1.544,0,0,0,1.55,1.62h1.38v1.93a0.506,0.506,0,0,0,.49.5,0.5,0.5,0,0,0,.36-0.15l2.25-2.25h9.96a1.573,1.573,0,0,0,1.55-1.56v-2.23h-9.87A3.726,3.726,0,0,1,3638.95,1448.09Z" transform="translate(-3635 -1432)"/>
  <path id="Forma_1-2" data-name="Forma 1" class="cls-2" d="M3664.63,1432h-21.96a2.375,2.375,0,0,0-2.37,2.37v13.66a2.384,2.384,0,0,0,2.37,2.38h15.14l3.42,3.46a0.75,0.75,0,0,0,1.29-.53v-2.93h2.11a2.384,2.384,0,0,0,2.37-2.38v-13.66A2.381,2.381,0,0,0,3664.63,1432Zm-18.59,11.75a2.2,2.2,0,1,1,2.19-2.19A2.183,2.183,0,0,1,3646.04,1443.75Zm7.7,0a2.2,2.2,0,1,1,2.19-2.19A2.211,2.211,0,0,1,3653.74,1443.75Zm7.67,0a2.2,2.2,0,1,1,2.19-2.19A2.211,2.211,0,0,1,3661.41,1443.75Z" transform="translate(-3635 -1432)"/>
</svg>
