<svg xmlns="http://www.w3.org/2000/svg" width="42" height="57">
    <path fill="#545E73" fill-rule="evenodd" d="M3 0h26a2 2 0 0 1 2 2v50a2 2 0 0 1-2 2H3a2 2 0 0 1-2-2V2a2 2 0 0 1 2-2z"/>
    <path fill="#8697CB" fill-rule="evenodd" d="M0 7h32v38H0V7z"/>
    <path fill="#323A45" fill-rule="evenodd" d="M16.5 47a2.5 2.5 0 1 1 0 5 2.5 2.5 0 0 1 0-5zM12 3h8a1 1 0 1 1 0 2h-8a1 1 0 0 1 0-2z"/>
    <path fill="#00ACC1" fill-rule="evenodd" d="M33.5 40a8.5 8.5 0 1 1-.001 17.001A8.5 8.5 0 0 1 33.5 40z"/>
    <path fill="#FFF" fill-rule="evenodd" d="M29.104 48.843a.384.384 0 0 1-.104-.246c0-.07.035-.175.104-.245l.485-.491a.33.33 0 0 1 .484 0l.035.035 1.904 2.069a.164.164 0 0 0 .242 0l4.638-4.876h.034a.333.333 0 0 1 .485 0l.485.491a.344.344 0 0 1 0 .492l-5.539 5.823a.311.311 0 0 1-.242.105.313.313 0 0 1-.242-.105l-2.7-2.947-.069-.105z"/>
</svg>
