<svg xmlns="http://www.w3.org/2000/svg" width="95" height="95">
    <path fill="#F78631" fill-rule="evenodd" d="M47.5 0C73.734 0 95 21.266 95 47.5S73.734 95 47.5 95 0 73.734 0 47.5 21.266 0 47.5 0z"/>
    <path fill="#FFF" fill-rule="evenodd" d="M28.372 28.219v-7.375a1.842 1.842 0 1 1 3.687 0v7.375c0 1.02-.824 1.844-1.844 1.844a1.842 1.842 0 0 1-1.843-1.844zm31.34 1.844a1.842 1.842 0 0 0 1.843-1.844v-7.375a1.842 1.842 0 1 0-3.687 0v7.375c0 1.02.825 1.844 1.844 1.844zm-31.34 29.502h7.375V52.19h-7.375v7.375zm11.061 0h7.375V52.19h-7.375v7.375zm-14.749 3.321V37.439h40.56v7.375h3.686V30.431c0-2.24-1.786-4.056-3.994-4.056h-1.537v1.844a3.692 3.692 0 0 1-3.687 3.688 3.693 3.693 0 0 1-3.687-3.688v-1.844H33.903v1.844a3.693 3.693 0 0 1-3.688 3.688 3.693 3.693 0 0 1-3.688-3.688v-1.844h-1.533c-2.21 0-3.996 1.816-3.996 4.056v32.455c0 2.232 1.786 4.055 3.996 4.055h21.814v-3.688H24.994c-.169 0-.31-.173-.31-.367zm33.184-14.384v-7.375h-7.373v7.375h7.373z"/>
    <path fill="#FFF" fill-rule="evenodd" d="M35.747 41.127h-7.375v7.375h7.375v-7.375zm3.686 7.375h7.375v-7.375h-7.375v7.375zM79.992 63.253c0 8.146-6.604 14.751-14.748 14.751-8.145 0-14.749-6.605-14.749-14.751 0-8.146 6.604-14.751 14.749-14.751 8.144 0 14.748 6.605 14.748 14.751zm-3.687 0c0-6.101-4.963-11.063-11.061-11.063-6.101 0-11.063 4.962-11.063 11.063 0 6.101 4.962 11.063 11.063 11.063 6.098 0 11.061-4.962 11.061-11.063zm-5.532 0h-5.529v-5.532a1.844 1.844 0 1 0-3.689 0v7.376c0 1.019.827 1.844 1.844 1.844h7.374c1.02 0 1.844-.825 1.844-1.844a1.843 1.843 0 0 0-1.844-1.844z"/>
</svg>
