<svg xmlns="http://www.w3.org/2000/svg" width="66" height="65">
    <path fill-rule="evenodd" d="M64.952 40.667a1.09 1.09 0 0 1-1.048.768c-.099 0-.203-.014-.306-.042-.58-.166-.91-.76-.739-1.326a3.724 3.724 0 0 0 .108-1.645 1.068 1.068 0 0 1 .904-1.224 1.086 1.086 0 0 1 1.25.885 5.749 5.749 0 0 1-.169 2.584zM53.471 26.199l-7.051-7.784c-3.793-4.188-3.793-10.999 0-15.187 1.877-2.07 4.383-3.21 7.049-3.21 2.673 0 5.177 1.14 7.054 3.21 3.794 4.188 3.794 10.999 0 15.187l-7.052 7.784zm5.42-21.552c-1.458-1.608-3.38-2.492-5.422-2.492-2.035 0-3.961.884-5.417 2.492-3.084 3.405-3.084 8.945 0 12.349l5.419 5.984 5.42-5.984c3.086-3.404 3.086-8.944 0-12.349zm-5.15 11.395c-3.308 0-6.001-2.636-6.001-5.875s2.693-5.876 6.001-5.876c3.307 0 6 2.637 6 5.876 0 3.239-2.693 5.875-6 5.875zm0-9.614c-2.105 0-3.817 1.677-3.817 3.739s1.71 3.739 3.817 3.739c2.106 0 3.818-1.677 3.818-3.739s-1.712-3.739-3.818-3.739zM42.132 35.271h-2.181a1.08 1.08 0 0 1-1.092-1.068 1.08 1.08 0 0 1 1.092-1.068h2.181c.604 0 1.091.477 1.091 1.068 0 .591-.487 1.068-1.091 1.068zm-.935-9.614h-2.183a1.078 1.078 0 0 1-1.089-1.069c0-.59.487-1.068 1.089-1.068h2.183a1.08 1.08 0 0 1 1.092 1.068 1.08 1.08 0 0 1-1.092 1.069zM35.81 47.919a1.09 1.09 0 0 1-1.276.849 1.072 1.072 0 0 1-.868-1.251 5.818 5.818 0 0 1 1.062-2.374 1.106 1.106 0 0 1 1.524-.227c.486.35.589 1.019.233 1.493a3.667 3.667 0 0 0-.675 1.51zm-.223-12.648h-.389a6.152 6.152 0 0 1-2.143-.385 1.065 1.065 0 0 1-.63-1.379 1.103 1.103 0 0 1 1.409-.618c.434.162.894.245 1.364.246h.389a1.08 1.08 0 0 1 1.092 1.068 1.08 1.08 0 0 1-1.092 1.068zm-.815-9.591a3.817 3.817 0 0 0-1.586.538 1.111 1.111 0 0 1-1.504-.342 1.056 1.056 0 0 1 .349-1.472 5.986 5.986 0 0 1 2.503-.848 1.09 1.09 0 0 1 1.205.945 1.076 1.076 0 0 1-.967 1.179zm-3.203 4.882a1.067 1.067 0 0 1-.696 1.35c-.111.037-.23.053-.342.053-.458 0-.883-.285-1.036-.735a5.753 5.753 0 0 1-.248-2.577c.074-.583.599-.993 1.218-.926.597.073 1.021.608.947 1.194a3.646 3.646 0 0 0 .157 1.641zm-5.02 33.553h-2.184a1.077 1.077 0 0 1-1.087-1.068c0-.591.486-1.069 1.087-1.069h2.184a1.08 1.08 0 0 1 1.091 1.069 1.08 1.08 0 0 1-1.091 1.068zm-12.622-2.661L4.626 51.163c-5.031-5.567-5.031-14.622 0-20.189 2.475-2.741 5.779-4.249 9.301-4.249 3.522 0 6.826 1.508 9.303 4.249 5.03 5.567 5.03 14.622-.002 20.189l-9.301 10.291zm7.668-29.064c-2.054-2.275-4.781-3.528-7.668-3.528-2.887 0-5.612 1.253-7.668 3.528-4.325 4.785-4.325 12.572 0 17.357l7.669 8.483 7.668-8.483c4.324-4.786 4.324-12.572-.001-17.357zm-7.668 13.564c-3.609 0-6.544-2.875-6.544-6.41 0-3.534 2.935-6.409 6.544-6.409 3.609 0 6.544 2.875 6.544 6.409 0 3.535-2.935 6.41-6.544 6.41zm0-10.683c-2.405 0-4.363 1.917-4.363 4.273 0 2.357 1.958 4.274 4.363 4.274 2.406 0 4.364-1.917 4.364-4.274 0-2.356-1.958-4.273-4.364-4.273zm3.895 26.707h2.181a1.08 1.08 0 0 1 1.091 1.069c0 .59-.487 1.068-1.091 1.068h-2.181a1.08 1.08 0 0 1-1.092-1.068 1.08 1.08 0 0 1 1.092-1.069zm13.089 0h2.182a1.08 1.08 0 0 1 1.091 1.069 1.08 1.08 0 0 1-1.091 1.068h-2.182a1.08 1.08 0 0 1-1.091-1.068 1.08 1.08 0 0 1 1.091-1.069zm5.724-10.951c.364.426.829.771 1.34 1 .546.245.787.879.537 1.416a1.093 1.093 0 0 1-.994.624c-.149 0-.305-.032-.453-.098a6.032 6.032 0 0 1-2.101-1.567 1.052 1.052 0 0 1 .136-1.505 1.104 1.104 0 0 1 1.535.13zm.822 10.951h2.18c.604 0 1.091.478 1.091 1.069 0 .59-.485 1.068-1.091 1.068h-2.18a1.079 1.079 0 0 1-1.091-1.068c0-.591.487-1.069 1.091-1.069zM39.37 44.89l-.045.001a1.081 1.081 0 0 1-1.09-1.024 1.079 1.079 0 0 1 1.047-1.111c.093-.005.184-.007.278-.007h1.947a1.08 1.08 0 0 1 1.091 1.069 1.08 1.08 0 0 1-1.091 1.068l-2.137.004zm2.451 7.474h2.181c.603 0 1.09.477 1.09 1.068 0 .591-.487 1.068-1.09 1.068h-2.181a1.079 1.079 0 0 1-1.091-1.068c0-.591.488-1.068 1.091-1.068zm2.18 9.614h2.182c.602 0 1.09.478 1.09 1.069 0 .59-.487 1.068-1.09 1.068h-2.182a1.079 1.079 0 0 1-1.091-1.068c0-.591.487-1.069 1.091-1.069zm5.767-27.775c0 .591-.487 1.068-1.09 1.068h-2.182a1.078 1.078 0 0 1-1.091-1.068c0-.591.487-1.068 1.091-1.068h2.182c.603 0 1.09.477 1.09 1.068zm-3.898 8.546h2.182c.603 0 1.09.478 1.09 1.069 0 .59-.487 1.068-1.09 1.068H45.87a1.08 1.08 0 0 1-1.09-1.068 1.08 1.08 0 0 1 1.09-1.069zm-.309-19.229h2.179c.605 0 1.092.478 1.092 1.068 0 .592-.487 1.069-1.092 1.069h-2.179a1.078 1.078 0 0 1-1.092-1.069c0-.59.486-1.068 1.092-1.068zm2.805 28.844h2.182c.602 0 1.089.477 1.089 1.068 0 .591-.488 1.068-1.089 1.068h-2.182a1.078 1.078 0 0 1-1.092-1.068c0-.591.487-1.068 1.092-1.068zm2.179 9.614h2.104c.605 0 1.129.478 1.129 1.067 0 .592-.449 1.069-1.052 1.069v-1.069l-.033 1.069-2.148.001c-.604 0-1.09-.478-1.09-1.068 0-.591.486-1.069 1.09-1.069zm4.053-19.229a1.08 1.08 0 0 1 1.091 1.069 1.08 1.08 0 0 1-1.091 1.068h-2.182c-.603 0-1.09-.478-1.09-1.068 0-.591.487-1.069 1.09-1.069h2.182zm-1.558-9.614h2.181c.604 0 1.092.477 1.092 1.068a1.08 1.08 0 0 1-1.092 1.068H53.04c-.603 0-1.09-.477-1.09-1.068 0-.591.487-1.068 1.09-1.068zm.815 20.322a1.097 1.097 0 0 1 1.461-.481c.792.386 1.501.95 2.049 1.632a1.052 1.052 0 0 1-.184 1.5 1.091 1.091 0 0 1-.673.229 1.1 1.1 0 0 1-.858-.407 3.826 3.826 0 0 0-1.306-1.041 1.056 1.056 0 0 1-.489-1.432zm2.521 5.608a1.09 1.09 0 0 1 1.303-.807c.588.129.957.7.825 1.277a5.849 5.849 0 0 1-1.137 2.338 1.095 1.095 0 0 1-.859.408c-.235 0-.471-.075-.672-.229a1.05 1.05 0 0 1-.182-1.5c.354-.441.596-.942.722-1.487zm1.493-15.247a1.08 1.08 0 0 1 1.091-1.069h.234c.511 0 1.007-.097 1.475-.289a1.096 1.096 0 0 1 1.425.571 1.057 1.057 0 0 1-.581 1.399 6.075 6.075 0 0 1-2.319.456h-.234a1.08 1.08 0 0 1-1.091-1.068zm3.234-8.047a3.817 3.817 0 0 0-1.604-.489 1.075 1.075 0 0 1-1.002-1.148 1.087 1.087 0 0 1 1.172-.982 6.017 6.017 0 0 1 2.528.771c.522.297.7.951.398 1.461a1.1 1.1 0 0 1-1.492.387z"/>
</svg>
