<?xml version="1.0" encoding="utf-8"?>
<!-- Generator: Adobe Illustrator 22.1.0, SVG Export Plug-In . SVG Version: 6.00 Build 0)  -->
<svg version="1.1" id="_-e-Group_12" xmlns="http://www.w3.org/2000/svg" xmlns:xlink="http://www.w3.org/1999/xlink" x="0px"
	 y="0px" viewBox="0 0 28.6 28" style="enable-background:new 0 0 28.6 28;" xml:space="preserve">
<style type="text/css">
	.st0{fill:#FFFFFF;}
	.st1{fill:#F78631;}
</style>
<ellipse id="_-e-Ellipse_1_copy" class="st0" cx="14.3" cy="14" rx="14.3" ry="14"/>
<path id="_-e-Forma_1" class="st1" d="M20.8,18.8L19.7,17c-0.5-0.8-0.8-1.8-0.8-2.8v-1.6c0-2-1.3-3.7-3.3-4.3V7.2
	c0-0.7-0.6-1.3-1.3-1.3c-0.7,0-1.3,0.6-1.3,1.3l0,0v1.1c-1.9,0.5-3.2,2.3-3.3,4.3v1.6c0,1-0.3,1.9-0.8,2.8l-1.1,1.8
	c-0.1,0.1-0.1,0.2,0,0.3c0.1,0.1,0.2,0.2,0.3,0.2h12.4c0.1,0,0.2-0.1,0.3-0.2C20.8,19,20.8,18.9,20.8,18.8z M12.3,19.9
	c0.6,1.1,1.9,1.6,3.1,1c0.5-0.2,0.8-0.6,1-1H12.3z"/>
</svg>
