<svg id="_-e-Group_14" data-name="-e-Group 14" xmlns="http://www.w3.org/2000/svg" width="27.97" height="26" viewBox="0 0 27.97 26">
  <metadata><?xpacket begin="﻿" id="W5M0MpCehiHzreSzNTczkc9d"?>
<x:xmpmeta xmlns:x="adobe:ns:meta/" x:xmptk="Adobe XMP Core 5.6-c140 79.160451, 2017/05/06-01:08:21        ">
   <rdf:RDF xmlns:rdf="http://www.w3.org/1999/02/22-rdf-syntax-ns#">
      <rdf:Description rdf:about=""/>
   </rdf:RDF>
</x:xmpmeta>
                                                                                                    
                                                                                                    
                                                                                                    
                                                                                                    
                                                                                                    
                                                                                                    
                                                                                                    
                                                                                                    
                                                                                                    
                                                                                                    
                                                                                                    
                                                                                                    
                                                                                                    
                                                                                                    
                                                                                                    
                                                                                                    
                                                                                                    
                                                                                                    
                                                                                                    
                                                                                                    
                           
<?xpacket end="w"?></metadata>
<defs>
    <style>
      .cls-1 {
        fill: #f78631;
      }

      .cls-1, .cls-2 {
        fill-rule: evenodd;
      }

      .cls-2 {
        fill: #c66b27;
      }
    </style>
  </defs>
  <path id="Forma_1" data-name="Forma 1" class="cls-1" d="M3666.53,1488.71l-12.83-9.45a1.065,1.065,0,0,0-1.4,0l-12.83,9.45a1.19,1.19,0,0,0,.7,2.12h2.33v12.99a1.11,1.11,0,0,0,1.17,1.18h18.66a1.11,1.11,0,0,0,1.17-1.18v-12.99h2.33A1.19,1.19,0,0,0,3666.53,1488.71ZM3653,1502.64a7.086,7.086,0,1,1,7-7.08A7.064,7.064,0,0,1,3653,1502.64Z" transform="translate(-3639 -1479)"/>
  <path id="Forma_1-2" data-name="Forma 1" class="cls-2" d="M3654.75,1493.78v-3.54h-3.5v3.54h-3.5v3.55h3.5v3.54h3.5v-3.54h3.5v-3.55h-3.5Z" transform="translate(-3639 -1479)"/>
</svg>
