<svg xmlns="http://www.w3.org/2000/svg" width="28" height="23" viewBox="0 0 28 23">
  <metadata><?xpacket begin="﻿" id="W5M0MpCehiHzreSzNTczkc9d"?>
<x:xmpmeta xmlns:x="adobe:ns:meta/" x:xmptk="Adobe XMP Core 5.6-c140 79.160451, 2017/05/06-01:08:21        ">
   <rdf:RDF xmlns:rdf="http://www.w3.org/1999/02/22-rdf-syntax-ns#">
      <rdf:Description rdf:about=""/>
   </rdf:RDF>
</x:xmpmeta>
                                                                                                    
                                                                                                    
                                                                                                    
                                                                                                    
                                                                                                    
                                                                                                    
                                                                                                    
                                                                                                    
                                                                                                    
                                                                                                    
                                                                                                    
                                                                                                    
                                                                                                    
                                                                                                    
                                                                                                    
                                                                                                    
                                                                                                    
                                                                                                    
                                                                                                    
                                                                                                    
                           
<?xpacket end="w"?></metadata>
<defs>
    <style>
      .cls-1 {
        fill: #c66b27;
      }

      .cls-1, .cls-2 {
        fill-rule: evenodd;
      }

      .cls-2 {
        fill: #f78631;
      }
    </style>
  </defs>
  <path id="Forma_1" data-name="Forma 1" class="cls-1" d="M4104.5,1589.31H4122v1.77h-17.5v-1.77Zm9.63,10.61h6.12v1.77h-6.12v-1.77Zm0-3.54H4122v1.77h-7.87v-1.77Zm0-3.53H4122v1.77h-7.87v-1.77Z" transform="translate(-4101 -1584)"/>
  <path class="cls-1" d="M4108.75,1596.8h-1.5v1.31s-2.15,3.78-2.16,3.8h5.82c-0.01-.02-2.16-3.8-2.16-3.8v-1.31h0Zm3.02,4.5-2-3.5v-3.94h0.41V1593h-4.38v0.86h0.43v3.94l-2,3.5a1.02,1.02,0,0,0,.9,1.7h5.74A1.02,1.02,0,0,0,4111.77,1601.3Zm-0.38.9a0.593,0.593,0,0,1-.52.18h-5.74a0.593,0.593,0,0,1-.52-0.18,0.7,0.7,0,0,1,.12-0.57l2.08-3.65v-4.52h2.38v2.87h0v1.65l2.07,3.65A0.675,0.675,0,0,1,4111.39,1602.2Z" transform="translate(-4101 -1584)"/>
  <path id="Forma_1-2" data-name="Forma 1" class="cls-2" d="M4125.5,1587.54V1584H4101v19.46s0,3.54,3.5,3.54h21.88s2.62-.06,2.62-3.54v-15.92h-3.5Zm-21,17.69a1.727,1.727,0,0,1-1.75-1.77v-17.69h21v17.69a2.582,2.582,0,0,0,.59,1.77H4104.5Z" transform="translate(-4101 -1584)"/>
</svg>
