<svg xmlns="http://www.w3.org/2000/svg" width="21.312" height="21.312">
    <path fill="#757575" fill-rule="evenodd" d="M15.841 14.927l-3.678-3.749a6.624 6.624 0 0 0 1.584-4.314c0-3.63-2.896-6.578-6.453-6.578C3.733.286.84 3.238.84 6.864c0 3.626 2.896 6.579 6.454 6.579a6.355 6.355 0 0 0 4.231-1.615l3.678 3.749a.454.454 0 0 0 .319.137.436.436 0 0 0 .319-.137.47.47 0 0 0 0-.65zM1.743 6.864c0-3.12 2.49-5.655 5.547-5.655 3.061 0 5.547 2.539 5.547 5.655 0 3.117-2.486 5.659-5.547 5.659-3.057 0-5.547-2.539-5.547-5.659z"/>
</svg>
