<svg xmlns="http://www.w3.org/2000/svg" width="11.47" height="11" viewBox="0 0 11.47 11">
  <metadata><?xpacket begin="﻿" id="W5M0MpCehiHzreSzNTczkc9d"?>
<x:xmpmeta xmlns:x="adobe:ns:meta/" x:xmptk="Adobe XMP Core 5.6-c140 79.160451, 2017/05/06-01:08:21        ">
   <rdf:RDF xmlns:rdf="http://www.w3.org/1999/02/22-rdf-syntax-ns#">
      <rdf:Description rdf:about=""/>
   </rdf:RDF>
</x:xmpmeta>
                                                                                                    
                                                                                                    
                                                                                                    
                                                                                                    
                                                                                                    
                                                                                                    
                                                                                                    
                                                                                                    
                                                                                                    
                                                                                                    
                                                                                                    
                                                                                                    
                                                                                                    
                                                                                                    
                                                                                                    
                                                                                                    
                                                                                                    
                                                                                                    
                                                                                                    
                                                                                                    
                           
<?xpacket end="w"?></metadata>
<defs>
    <style>
      .cls-1 {
        fill: #f78631;
        fill-rule: evenodd;
      }
    </style>
  </defs>
  <path id="_-e-Forma_1" data-name="-e-Forma 1" class="cls-1" d="M1852.23,250.983a0.822,0.822,0,0,0,.2-0.844,0.8,0.8,0,0,0-.66-0.56l-2.78-.4a0.348,0.348,0,0,1-.27-0.2l-1.24-2.518a0.828,0.828,0,0,0-.74-0.459,0.817,0.817,0,0,0-.74.459l-1.24,2.518a0.365,0.365,0,0,1-.27.2l-2.78.4a0.831,0.831,0,0,0-.67.56,0.847,0.847,0,0,0,.21.844l2.01,1.96a0.357,0.357,0,0,1,.11.322l-0.48,2.768a0.8,0.8,0,0,0,.18.667,0.839,0.839,0,0,0,1.02.2l2.48-1.307a0.374,0.374,0,0,1,.34,0l2.48,1.307a0.817,0.817,0,0,0,.38.095,0.834,0.834,0,0,0,.64-0.3,0.8,0.8,0,0,0,.17-0.667l-0.47-2.768a0.357,0.357,0,0,1,.11-0.322Z" transform="translate(-1841 -246)"/>
</svg>
