<svg xmlns="http://www.w3.org/2000/svg" width="48" height="32">
    <path fill="#F38430" fill-rule="evenodd" d="M47.573 2.183a.992.992 0 0 0-.915-.121l-8.152 2.965a3.97 3.97 0 0 0-2.266 2.084 3.99 3.99 0 0 0-.195.563c-1.4-.398-4.001-1.229-6.587-2.561-3.907-2.013-6.891-1.019-9.451.934-1.298.025-3.085.179-4.843.334-1.121.099-2.18.19-3.039.242a4.013 4.013 0 0 0-.365-1.512 3.97 3.97 0 0 0-2.266-2.084L1.342.063A.999.999 0 0 0 0 1.002v19.999a1 1 0 0 0 1 1h2.921a4.022 4.022 0 0 0 3.145-1.532c.398.302.869.657 1.364 1.028 1.167.878 2.444 1.836 3.005 2.305 3.723 3.117 8.2 6.483 9.091 7.069C21.359 31.418 22.859 32 24 32c.446 0 1.57 0 2.359-.667a3.213 3.213 0 0 0 2.506-.056c.814-.358 1.472-1.034 1.855-1.855.781.16 1.678.043 2.492-.365.763-.382 1.324-.96 1.625-1.636.722.066 1.494-.169 2.184-.697.987-.754 1.439-1.868 1.311-2.966l2.536-1.403C41.611 23.361 42.792 24 44.079 24H47a1 1 0 0 0 1-1V3.002a.999.999 0 0 0-.427-.819zM5.794 18.703a2.01 2.01 0 0 1-1.873 1.298H2V2.43l6.811 2.476c.505.185.908.555 1.132 1.043.226.488.245 1.035.057 1.538L5.794 18.703zm30.014 6.432c-.339.26-.814.405-1.025.194-.011-.011-.027-.01-.038-.02-.019-.018-.029-.042-.05-.059-.714-.564-3.918-3.841-5.897-5.905a.996.996 0 0 0-1.413-.031.997.997 0 0 0-.03 1.413c.464.485 4.194 4.369 5.687 5.728-.112.439-.519.71-.726.814-.64.321-1.308.267-1.558.035-.008-.007-.019-.007-.026-.013-.012-.011-.018-.026-.031-.037-1.199-.958-4.208-4.155-4.889-4.895a1 1 0 1 0-1.472 1.353c.033.036 2.981 3.216 4.637 4.694-.162.467-.494.855-.919 1.042-.314.14-.805.211-1.367-.203-1.436-1.218-4.318-4.285-4.884-4.892a1 1 0 1 0-1.461 1.365c.672.719 2.658 2.825 4.168 4.25-.169.02-.346.032-.514.032-.662 0-1.8-.423-2.375-.801-.701-.461-5.104-3.745-8.905-6.929-.575-.482-1.888-1.47-3.089-2.372-.644-.483-1.237-.929-1.674-1.265l3.744-9.985c.972-.043 2.268-.155 3.639-.276a215.15 215.15 0 0 1 2.294-.192c-1.141 1.17-2.836 3.267-2.613 5.232.103.895.592 1.64 1.417 2.155 1.634 1.023 4.659.165 6.116-1.627.94-.135 1.576-.375 2.269-.719 1.172 1.101 2.743 2.396 4.394 3.756 2.873 2.367 6.13 5.051 6.991 6.556.479.837-.186 1.438-.4 1.602zm1.715-3.216c-1.332-1.782-4.22-4.166-7.035-6.485-1.876-1.546-3.647-3.006-4.781-4.14a1.006 1.006 0 0 0-1.179-.175c-1.018.546-1.477.772-2.628.887a1 1 0 0 0-.746.462c-.784 1.244-2.964 1.836-3.655 1.404-.393-.246-.469-.496-.49-.686-.097-.851.764-2.323 2.193-3.753 3.538-3.538 6.068-4.23 9.34-2.543 3.109 1.603 6.178 2.509 7.466 2.852.037.15.064.301.119.448l3.883 10.354-2.487 1.375zm8.477.082h-1.921a2.01 2.01 0 0 1-1.873-1.298L38 9.488a1.986 1.986 0 0 1 .057-1.539 1.985 1.985 0 0 1 1.132-1.043L46 4.429v17.572z"/>
</svg>
