<svg xmlns="http://www.w3.org/2000/svg" width="48" height="48">
    <path fill="#F78631" fill-rule="evenodd" d="M5.997 7.5v-6a1.5 1.5 0 1 1 2.998 0v6a1.498 1.498 0 1 1-2.998 0zm25.497 1.501c.829 0 1.499-.671 1.499-1.501v-6a1.498 1.498 0 1 0-2.999 0v6a1.5 1.5 0 0 0 1.5 1.501zM5.997 33.002h6.001v-6H5.997v6zm8.999 0h6v-6h-6v6zM2.997 35.704V15.001h32.998v6.001h2.999V9.3c0-1.823-1.453-3.3-3.251-3.3h-1.25v1.5a3.004 3.004 0 0 1-2.999 3.001A3.004 3.004 0 0 1 28.495 7.5V6H10.497v1.5a3.005 3.005 0 0 1-3.001 3.001c-1.654 0-3-1.348-3-3.001V6H3.249C1.451 6-.002 7.477-.002 9.3v26.404c0 1.816 1.453 3.299 3.251 3.299h17.747v-3.001H3.249c-.138 0-.252-.14-.252-.298zm26.997-11.702v-6.001h-5.998v6.001h5.998z"/>
    <path fill="#F78631" fill-rule="evenodd" d="M11.998 18.001H5.997v6.001h6.001v-6.001zm2.998 6.001h6v-6.001h-6v6.001zM47.993 36.002c0 6.628-5.374 12.001-11.998 12.001-6.626 0-11.999-5.373-11.999-12.001 0-6.627 5.373-12 11.999-12 6.624 0 11.998 5.373 11.998 12zm-2.999 0c0-4.963-4.038-9-8.999-9-4.964 0-9.001 4.037-9.001 9 0 4.964 4.037 9.001 9.001 9.001 4.961 0 8.999-4.037 8.999-9.001zm-4.501 0h-4.498v-4.5a1.5 1.5 0 0 0-3.002 0v6.001a1.5 1.5 0 0 0 1.5 1.5h6a1.5 1.5 0 1 0 0-3.001z"/>
</svg>
