<svg xmlns="http://www.w3.org/2000/svg" width="47" height="38">
    <path fill="#D8630B" fill-rule="evenodd" d="M44.353 32.027h-.762v4.855A1.118 1.118 0 0 1 42.482 38c-.288 0-.572-.113-.784-.327L36.1 32.027H22.284c-1.46 0-2.647-1.197-2.647-2.669V16.345c0-1.471 1.187-2.669 2.647-2.669h22.069c1.46 0 2.646 1.198 2.646 2.669v13.013c0 1.472-1.186 2.669-2.646 2.669zm.429-15.682a.432.432 0 0 0-.429-.433H22.284a.431.431 0 0 0-.429.433v13.013c0 .239.192.433.429.433h14.277a1.095 1.095 0 0 1 .774.319l.013.013 4.026 4.06s.001-3.336.004-3.36a1.112 1.112 0 0 1 1.104-1.032h1.871a.431.431 0 0 0 .429-.433V16.345zM38.47 23.97a1.114 1.114 0 0 1-1.109-1.118c0-.617.497-1.118 1.109-1.118s1.109.501 1.109 1.118c0 .617-.497 1.118-1.109 1.118zm-5.151 0a1.114 1.114 0 0 1-1.109-1.118c0-.617.497-1.118 1.109-1.118s1.108.501 1.108 1.118c0 .617-.496 1.118-1.108 1.118zm-5.153 0a1.114 1.114 0 0 1-1.108-1.118c0-.617.497-1.118 1.108-1.118.613 0 1.109.501 1.109 1.118 0 .617-.496 1.118-1.109 1.118zM28.5 9.628H8.321c-.612 0-1.108-.5-1.108-1.118 0-.617.496-1.118 1.108-1.118H28.5c.612 0 1.108.501 1.108 1.118 0 .618-.496 1.118-1.108 1.118zM8.321 14.785h7.658c.613 0 1.109.5 1.109 1.118 0 .617-.496 1.118-1.109 1.118H8.321a1.113 1.113 0 0 1-1.108-1.118c0-.618.496-1.118 1.108-1.118z"/>
    <path fill="#F78631" fill-rule="evenodd" d="M38.47 23.97a1.114 1.114 0 0 1-1.109-1.118c0-.617.497-1.118 1.109-1.118s1.109.501 1.109 1.118c0 .617-.497 1.118-1.109 1.118zm-2.757-12.865c-.613 0-1.109-.5-1.109-1.118V2.669a.432.432 0 0 0-.429-.433H2.646a.432.432 0 0 0-.429.433v19.075c0 .239.193.433.429.433h3.153c.579 0 1.053.448 1.104 1.018.003.03.005 5.62.005 5.62l6.258-6.311a1.1 1.1 0 0 1 .709-.323 753.52 753.52 0 0 1 2.104-.004c.613 0 1.109.501 1.109 1.118 0 .618-.496 1.118-1.109 1.118h-1.57l-7.826 7.892a1.102 1.102 0 0 1-1.208.243 1.118 1.118 0 0 1-.684-1.033v-7.102H2.646C1.187 24.413 0 23.216 0 21.744V2.669C0 1.197 1.187 0 2.646 0h31.529c1.459 0 2.646 1.197 2.646 2.669v7.318c0 .618-.496 1.118-1.108 1.118zm-7.547 10.629c.613 0 1.109.501 1.109 1.118 0 .617-.496 1.118-1.109 1.118a1.114 1.114 0 0 1-1.108-1.118c0-.617.497-1.118 1.108-1.118zM8.321 14.785h7.658c.613 0 1.109.5 1.109 1.118 0 .617-.496 1.118-1.109 1.118H8.321a1.113 1.113 0 0 1-1.108-1.118c0-.618.496-1.118 1.108-1.118zm0-5.157c-.612 0-1.108-.5-1.108-1.118 0-.617.496-1.118 1.108-1.118H28.5c.612 0 1.108.501 1.108 1.118 0 .618-.496 1.118-1.108 1.118H8.321zm24.998 12.106c.612 0 1.108.501 1.108 1.118 0 .617-.496 1.118-1.108 1.118a1.114 1.114 0 0 1-1.109-1.118c0-.617.497-1.118 1.109-1.118z"/>
</svg>
