<svg xmlns="http://www.w3.org/2000/svg" width="27" height="27">
    <defs>
        <filter id="a" width="27" height="27" x="0" y="0" filterUnits="userSpaceOnUse">
            <feOffset dx="-.616" dy=".788" in="SourceAlpha"/>
            <feGaussianBlur result="blurOut" stdDeviation="1.414"/>
            <feFlood flood-color="#000" result="floodOut"/>
            <feComposite in="floodOut" in2="blurOut" operator="atop"/>
            <feComponentTransfer>
                <feFuncA slope=".12" type="linear"/>
            </feComponentTransfer>
            <feMerge>
                <feMergeNode/>
                <feMergeNode in="SourceGraphic"/>
            </feMerge>
        </filter>
    </defs>
    <path fill="#F58354" fill-rule="evenodd" d="M14 0c6.628 0 12 5.373 12 12s-5.372 12-12 12C7.373 24 2 18.627 2 12S7.373 0 14 0z" filter="url(#a)"/>
    <path fill="#FFF" fill-rule="evenodd" d="M10.289 12.898c.033.343.232.666.566.847.276.151.562.261.854.336a8.64 8.64 0 0 1-1.004 2.147c-.511.792-.517 1.747-.016 2.621.738 1.288 2.366 2.154 4.054 2.154 1.158 0 2.188-.517 2.899-1.455 1.017-1.342 1.242-3.322.603-5.295-.593-1.83.2-2.807.725-3.226a2.408 2.408 0 0 0 1.649.645c1.315 0 2.38-1.032 2.38-2.306 0-1.273-1.065-2.305-2.38-2.305-1.314 0-2.38 1.032-2.38 2.305 0 .18.023.354.063.521-.991.702-2.135 2.283-1.335 4.754.505 1.558.351 3.144-.404 4.139-.321.423-.897.926-1.821.926-1.196 0-2.382-.611-2.882-1.485-.185-.323-.338-.812-.019-1.306a9.91 9.91 0 0 0 1.235-2.759 3.654 3.654 0 0 0 1.153-.373c.33-.172.533-.481.579-.816 1.571-1.377 2.298-3.858 2.34-4.003a.642.642 0 0 0-.331-.744c.218-1.862-.494-2.801-.923-3.183a.461.461 0 0 0-.204-.473l-.789-.5a.4.4 0 0 0-.578.148l-.377.704c-.113.212-.013.439.224.507l.892.254a.59.59 0 0 0 .625-.232c.356.363.868 1.171.692 2.712a.662.662 0 0 0-.522.461c-.214.746-.833 2.285-1.752 3.208a1.146 1.146 0 0 0-.928.05 1.292 1.292 0 0 1-.58.155h-.04a1.323 1.323 0 0 1-.611-.171 1.14 1.14 0 0 0-.915-.073c-.899-.927-1.505-2.433-1.716-3.169a.662.662 0 0 0-.521-.461c-.176-1.541.335-2.349.691-2.711a.593.593 0 0 0 .626.232l.892-.255c.236-.068.337-.295.223-.507l-.376-.704a.401.401 0 0 0-.578-.148l-.79.5a.461.461 0 0 0-.203.473c-.429.383-1.142 1.321-.925 3.184a.64.64 0 0 0-.329.743c.041.143.744 2.545 2.264 3.934zm10.33-4.432c.514 0 .931.403.931.9 0 .498-.417.901-.931.901-.513 0-.93-.403-.93-.901 0-.497.417-.9.93-.9z"/>
    <path fill="#FFF" fill-rule="evenodd" d="M18.302 9.887c-.991.702-2.135 2.283-1.335 4.754.505 1.558.351 3.144-.404 4.139-.321.423-.897.926-1.821.926-1.196 0-2.382-.611-2.882-1.485-.185-.323-.338-.812-.019-1.306a9.91 9.91 0 0 0 1.235-2.759 3.654 3.654 0 0 0 1.153-.373c.33-.172.533-.481.579-.816 1.571-1.377 2.298-3.858 2.34-4.003a.642.642 0 0 0-.331-.744c.218-1.862-.494-2.801-.923-3.183a.461.461 0 0 0-.204-.473l-.789-.5a.4.4 0 0 0-.578.148l-.377.704c-.113.212-.013.439.224.507l.892.254a.59.59 0 0 0 .625-.232c.356.363.868 1.171.692 2.712a.662.662 0 0 0-.522.461c-.214.746-.833 2.285-1.752 3.208a1.146 1.146 0 0 0-.928.05 1.292 1.292 0 0 1-.58.155h-.04a1.323 1.323 0 0 1-.611-.171 1.14 1.14 0 0 0-.915-.073c-.899-.927-1.505-2.433-1.716-3.169a.662.662 0 0 0-.521-.461c-.176-1.541.335-2.349.691-2.711a.593.593 0 0 0 .626.232l.892-.255c.236-.068.337-.295.223-.507l-.376-.704a.401.401 0 0 0-.578-.148l-.79.5a.461.461 0 0 0-.203.473c-.429.383-1.142 1.321-.925 3.184a.64.64 0 0 0-.329.743c.041.143.744 2.545 2.264 3.934.033.343.232.666.566.847.276.151.562.261.854.336a8.64 8.64 0 0 1-1.004 2.147c-.511.792-.517 1.747-.016 2.621.738 1.288 2.366 2.154 4.054 2.154 1.158 0 2.188-.517 2.899-1.455 1.017-1.342 1.242-3.322.603-5.295-.593-1.83.2-2.807.725-3.226"/>
</svg>
