<svg id="_-e-Group_17" data-name="-e-Group 17" xmlns="http://www.w3.org/2000/svg" width="50" height="58" viewBox="0 0 50 58">
  <metadata><?xpacket begin="﻿" id="W5M0MpCehiHzreSzNTczkc9d"?>
<x:xmpmeta xmlns:x="adobe:ns:meta/" x:xmptk="Adobe XMP Core 5.6-c140 79.160451, 2017/05/06-01:08:21        ">
   <rdf:RDF xmlns:rdf="http://www.w3.org/1999/02/22-rdf-syntax-ns#">
      <rdf:Description rdf:about=""/>
   </rdf:RDF>
</x:xmpmeta>
                                                                                                    
                                                                                                    
                                                                                                    
                                                                                                    
                                                                                                    
                                                                                                    
                                                                                                    
                                                                                                    
                                                                                                    
                                                                                                    
                                                                                                    
                                                                                                    
                                                                                                    
                                                                                                    
                                                                                                    
                                                                                                    
                                                                                                    
                                                                                                    
                                                                                                    
                                                                                                    
                           
<?xpacket end="w"?></metadata>
<defs>
    <style>
      .cls-1 {
        fill: #c66b27;
      }

      .cls-1, .cls-2 {
        fill-rule: evenodd;
      }

      .cls-2 {
        fill: #f78631;
      }
    </style>
  </defs>
  <path id="Forma_1" data-name="Forma 1" class="cls-1" d="M142.631,277.357a3.683,3.683,0,0,0,1.884,2.891,12.192,12.192,0,0,0,2.848,1.145,29.908,29.908,0,0,1-3.347,7.327,8.53,8.53,0,0,0-.053,8.941c2.459,4.4,7.887,7.349,13.511,7.349a11.818,11.818,0,0,0,9.666-4.963c3.391-4.579,4.142-11.335,2.009-18.068-1.976-6.244.667-9.574,2.417-11.006a7.847,7.847,0,1,0-2.437-5.664,7.813,7.813,0,0,0,.211,1.776c-3.305,2.4-7.118,7.788-4.45,16.219,1.683,5.315,1.168,10.726-1.348,14.122a7.384,7.384,0,0,1-6.069,3.16c-3.987,0-7.938-2.084-9.607-5.069a4.207,4.207,0,0,1-.064-4.453,34.151,34.151,0,0,0,4.119-9.415,11.944,11.944,0,0,0,3.841-1.273,3.674,3.674,0,0,0,1.929-2.782c5.242-4.7,7.664-13.164,7.8-13.659a2.2,2.2,0,0,0-1.1-2.536c0.725-6.354-1.649-9.557-3.08-10.863a1.588,1.588,0,0,0-.679-1.613L158,247.218a1.321,1.321,0,0,0-1.928.505l-1.254,2.4a1.171,1.171,0,0,0,.745,1.729l2.973,0.869a1.948,1.948,0,0,0,2.085-.792c1.186,1.238,2.893,3.994,2.3,9.251a2.218,2.218,0,0,0-1.736,1.575c-0.715,2.543-2.778,7.8-5.843,10.944a3.734,3.734,0,0,0-3.091.17,4.241,4.241,0,0,1-1.933.53h-0.133a4.326,4.326,0,0,1-2.039-.586,3.717,3.717,0,0,0-3.05-.246c-3-3.163-5.016-8.3-5.72-10.812a2.223,2.223,0,0,0-1.736-1.574c-0.589-5.257,1.118-8.013,2.3-9.251a1.948,1.948,0,0,0,2.084.792l2.974-.869a1.171,1.171,0,0,0,.745-1.729l-1.253-2.4a1.32,1.32,0,0,0-1.927-.5l-2.634,1.706a1.589,1.589,0,0,0-.678,1.613c-1.429,1.306-3.8,4.507-3.08,10.863a2.2,2.2,0,0,0-1.1,2.536C135.218,264.423,137.565,272.619,142.631,277.357Zm34.433-15.121a3.073,3.073,0,1,1-3.1,3.073A3.087,3.087,0,0,1,177.064,262.236Z" transform="translate(-135 -247)"/>
  <path id="Forma_1-2" data-name="Forma 1" class="cls-2" d="M169.34,267.085c-3.305,2.4-7.118,7.788-4.45,16.219,1.683,5.315,1.168,10.726-1.348,14.122a7.384,7.384,0,0,1-6.069,3.16c-3.987,0-7.938-2.084-9.607-5.069a4.207,4.207,0,0,1-.064-4.453,34.151,34.151,0,0,0,4.119-9.415,11.944,11.944,0,0,0,3.841-1.273,3.674,3.674,0,0,0,1.929-2.782c5.242-4.7,7.664-13.164,7.8-13.659a2.2,2.2,0,0,0-1.1-2.536c0.725-6.354-1.649-9.557-3.08-10.863a1.588,1.588,0,0,0-.679-1.613L158,247.218a1.321,1.321,0,0,0-1.928.505l-1.254,2.4a1.171,1.171,0,0,0,.745,1.729l2.973,0.869a1.948,1.948,0,0,0,2.085-.792c1.186,1.238,2.893,3.994,2.3,9.251a2.218,2.218,0,0,0-1.736,1.575c-0.715,2.543-2.778,7.8-5.843,10.944a3.734,3.734,0,0,0-3.091.17,4.241,4.241,0,0,1-1.933.53h-0.133a4.326,4.326,0,0,1-2.039-.586,3.717,3.717,0,0,0-3.05-.246c-3-3.163-5.016-8.3-5.72-10.812a2.223,2.223,0,0,0-1.736-1.574c-0.589-5.257,1.118-8.013,2.3-9.251a1.948,1.948,0,0,0,2.084.792l2.974-.869a1.171,1.171,0,0,0,.745-1.729l-1.253-2.4a1.32,1.32,0,0,0-1.927-.5l-2.634,1.706a1.589,1.589,0,0,0-.678,1.613c-1.429,1.306-3.8,4.507-3.08,10.863a2.2,2.2,0,0,0-1.1,2.536c0.136,0.486,2.483,8.682,7.549,13.42a3.683,3.683,0,0,0,1.884,2.891,12.192,12.192,0,0,0,2.848,1.145,29.908,29.908,0,0,1-3.347,7.327,8.53,8.53,0,0,0-.053,8.941c2.459,4.4,7.887,7.349,13.511,7.349a11.818,11.818,0,0,0,9.666-4.963c3.391-4.579,4.142-11.335,2.009-18.068-1.976-6.244.667-9.574,2.417-11.006" transform="translate(-135 -247)"/>
</svg>
