<svg xmlns="http://www.w3.org/2000/svg" width="27" height="34">
    <path fill="#F78631" fill-rule="evenodd" d="M17.726 11.474c.303.55.516.99.65 1.54h1.503c.616 0 1.121.495 1.121 1.1 0 .605-.505 1.1-1.121 1.1h-1.503a4.63 4.63 0 0 1-1.3 2.288 4.845 4.845 0 0 1-3.151 1.397l4.238 3.927c.437.407.46 1.1.045 1.54a1.146 1.146 0 0 1-1.592.055l-6.268-5.797a1.071 1.071 0 0 1-.347-.814c.011-.594.516-1.056 1.121-1.045h2.512c.695 0 1.367-.286 1.861-.781.213-.231.381-.484.527-.759h-4.9a1.114 1.114 0 0 1-1.121-1.1c0-.605.504-1.1 1.121-1.1h4.9c-.426-.88-1.335-1.54-2.388-1.54h-2.512a1.114 1.114 0 0 1-1.121-1.1c0-.605.504-1.1 1.121-1.1h8.757c.616 0 1.121.495 1.121 1.1 0 .605-.505 1.1-1.121 1.1v-.011h-2.153z"/>
    <path fill="#CB6920" fill-rule="evenodd" d="M19.269 4.589l.021.005H3.59l2.735-2.872a.763.763 0 0 0 .207-.53.76.76 0 0 0-.207-.528L5.9.218A.693.693 0 0 0 4.895.217L.207 5.129A.753.753 0 0 0 0 5.656a.755.755 0 0 0 .207.529l4.688 4.912a.69.69 0 0 0 1.005 0l.425-.446a.755.755 0 0 0 .207-.526.734.734 0 0 0-.207-.517L3.559 6.72h15.72c.392 0 .721-.353.721-.764v-.631a.739.739 0 0 0-.731-.736zM7.731 27.275l-.021.004h15.7l-2.735-2.871a.767.767 0 0 1-.207-.53.76.76 0 0 1 .207-.528l.425-.447a.692.692 0 0 1 1.005 0l4.688 4.911a.758.758 0 0 1 .207.528.756.756 0 0 1-.207.529l-4.688 4.912a.69.69 0 0 1-1.005 0l-.425-.446a.756.756 0 0 1-.207-.527c0-.199.073-.376.207-.516l2.766-2.888H7.721c-.392 0-.721-.354-.721-.764v-.631c0-.41.339-.736.731-.736z"/>
</svg>
