<svg xmlns="http://www.w3.org/2000/svg" width="30" height="30">
    <path fill="#57A4F5" fill-rule="evenodd" d="M15 0C6.716 0 0 6.716 0 15c0 8.284 6.716 15 15 15 8.284 0 15-6.716 15-15 0-8.285-6.716-15-15-15zm7.463 11.633l.011.478c0 4.881-3.715 10.506-10.508 10.506-2.085 0-4.026-.611-5.661-1.659a7.417 7.417 0 0 0 5.468-1.527 3.698 3.698 0 0 1-3.45-2.565 3.793 3.793 0 0 0 1.669-.064 3.698 3.698 0 0 1-2.963-3.621v-.047a3.7 3.7 0 0 0 1.673.464 3.692 3.692 0 0 1-1.642-3.074c0-.677.181-1.31.499-1.856a10.478 10.478 0 0 0 7.611 3.859 3.692 3.692 0 0 1 3.598-4.533c1.062 0 2.022.447 2.697 1.165a7.467 7.467 0 0 0 2.346-.896 3.706 3.706 0 0 1-1.624 2.044 7.388 7.388 0 0 0 2.12-.581 7.447 7.447 0 0 1-1.844 1.907z"/>
</svg>
