<svg xmlns="http://www.w3.org/2000/svg" width="29" height="29">
    <path fill="#F00" fill-rule="evenodd" d="M14.5 29C6.493 29 .001 22.508.001 14.5S6.493.001 14.5.001c8.008 0 14.499 6.491 14.499 14.499 0 8.008-6.491 14.5-14.499 14.5zm9.884-19.339c-.251-1.089-1.141-1.893-2.214-2.012-2.538-.284-5.108-.285-7.666-.284-2.559-.001-5.128 0-7.668.284-1.071.119-1.961.923-2.212 2.012-.356 1.55-.361 3.243-.361 4.839 0 1.597 0 3.289.357 4.84.25 1.089 1.14 1.892 2.212 2.012 2.539.284 5.109.285 7.668.284 2.558.001 5.128 0 7.666-.284 1.072-.12 1.963-.923 2.213-2.012.357-1.551.359-3.243.359-4.84 0-1.596.002-3.289-.354-4.839zm-12.526 1.246l6.509 3.396-6.509 3.375v-6.771z"/>
</svg>
