<?xml version="1.0" encoding="utf-8"?>
<!-- Generator: Adobe Illustrator 22.1.0, SVG Export Plug-In . SVG Version: 6.00 Build 0)  -->
<svg version="1.1" id="appoinments" xmlns="http://www.w3.org/2000/svg" xmlns:xlink="http://www.w3.org/1999/xlink" x="0px"
	 y="0px" viewBox="0 0 115 115" style="enable-background:new 0 0 115 115;" xml:space="preserve">
<style type="text/css">
	.st0{fill:#F78631;}
</style>
<path id="_-e-Forma_1_copy_4" class="st0" d="M43.5,62.1c0-1.3-1.1-2.1-2.3-2.1h-7.8c-1.3,0-2.3,1.1-2.3,2.1v7.6
	c0,1.3,1.1,2.1,2.3,2.1h7.8c1.3,0,2.3-1.1,2.3-2.1V62.1L43.5,62.1z M63.1,62.1c0-1.3-1.1-2.1-2.3-2.1H53c-1.3,0-2.3,1.1-2.3,2.1v7.6
	c0,1.3,1.1,2.1,2.3,2.1h7.8c1.3,0,2.3-1.1,2.3-2.1V62.1z M82.7,62.1c0-1.3-1.1-2.1-2.3-2.1l0,0h-7.8c-1.3,0-2.3,1.1-2.3,2.1v7.6
	c0,1.3,1.1,2.1,2.3,2.1h7.8c1.3,0,2.3-1.1,2.3-2.1l0,0V62.1z M43.5,81.3c0-1.3-1.1-2.1-2.3-2.1l0,0h-7.8c-1.3,0-2.3,1.1-2.3,2.1l0,0
	v7.6c0,1.3,1.1,2.1,2.3,2.1l0,0h7.8c1.3,0,2.3-1.1,2.3-2.1l0,0V81.3L43.5,81.3z M63.1,81.3c0-1.3-1.1-2.1-2.3-2.1l0,0H53
	c-1.3,0-2.3,1.1-2.3,2.1l0,0v7.6c0,1.3,1.1,2.1,2.3,2.1l0,0h7.8c1.3,0,2.3-1.1,2.3-2.1l0,0V81.3z M82.7,81.3c0-1.3-1.1-2.1-2.1-2.1
	l0,0h-7.8c-1.3,0-2.3,1.1-2.3,2.1l0,0v7.6c0,1.3,1.1,2.1,2.3,2.1l0,0h7.8c1.3,0,2.3-1.1,2.3-2.1l0,0v-7.6H82.7z M96.8,19.3v11.8
	c0,5.3-4.4,9.7-9.7,9.5l0,0H81c-5.3,0-9.7-4.2-9.9-9.5V19.3h-28v11.8c0,5.3-4.4,9.7-9.9,9.5h-6.1c-5.3,0-9.7-4.2-9.9-9.5l0,0V19.3
	c-4.6,0.2-8.6,4-8.6,8.6v68.7c0,4.8,4,8.9,8.9,8.6h79.3c4.8,0,8.9-3.8,8.9-8.6V28C105.5,23.3,101.5,19.5,96.8,19.3L96.8,19.3z
	 M93.9,92.5c0,2.1-1.7,3.8-3.8,3.8H23.7c-2.1,0-3.8-1.7-3.8-3.8l0,0V57.1c0-2.1,1.7-3.8,3.8-3.8l0,0h66.4c2.1,0,3.8,1.7,3.8,3.8
	V92.5L93.9,92.5z M26.9,34.3H33c1.9,0,3.4-1.5,3.4-3.2l0,0V11.9c0-1.9-1.5-3.4-3.4-3.4l0,0h-6.1c-1.9,0-3.4,1.5-3.4,3.4v19.2
	C23.7,32.8,25.2,34.3,26.9,34.3L26.9,34.3z M80.8,34.3h6.1c1.9,0,3.4-1.5,3.4-3.2l0,0V11.9c0-1.9-1.5-3.4-3.4-3.4l0,0h-6.1
	c-1.9,0-3.4,1.5-3.4,3.4v19.2C77.4,33,78.9,34.3,80.8,34.3L80.8,34.3z"/>
</svg>
