<svg xmlns="http://www.w3.org/2000/svg" width="37" height="37">
    <path fill="#FE8809" fill-rule="evenodd" d="M18.5 0C28.717 0 37 8.283 37 18.5S28.717 37 18.5 37 0 28.717 0 18.5 8.283 0 18.5 0z"/>
    <path fill="#FFF" fill-rule="evenodd" d="M26.76 16.97l-13.416-5.742a1.559 1.559 0 0 0-1.667.278 1.677 1.677 0 0 0-.504 1.661l1.193 4.831h5.848c.269 0 .487.225.487.502a.495.495 0 0 1-.487.503h-5.848l-1.193 4.83a1.679 1.679 0 0 0 .504 1.662 1.56 1.56 0 0 0 1.667.278L26.76 20.03c.611-.261.99-.848.99-1.53s-.379-1.268-.99-1.53z"/>
</svg>
