<svg xmlns="http://www.w3.org/2000/svg" width="40" height="43">
    <path fill="#FFF" fill-rule="evenodd" d="M32.405 27.625c-2.44 0-4.616 1.179-6.009 3L14.74 24.027a7.813 7.813 0 0 0 .423-2.536c0-.893-.15-1.741-.432-2.545l11.648-6.589c1.383 1.831 3.568 3.018 6.017 3.018 4.177 0 7.586-3.446 7.586-7.687 0-4.242-3.4-7.688-7.586-7.688-4.185 0-7.585 3.446-7.585 7.688 0 .892.149 1.75.431 2.544l-11.638 6.589a7.518 7.518 0 0 0-6.018-3.017C3.41 13.804 0 17.25 0 21.491s3.41 7.688 7.595 7.688c2.449 0 4.634-1.188 6.026-3.027l11.648 6.598a7.747 7.747 0 0 0-.441 2.562c0 4.233 3.401 7.688 7.586 7.688C36.599 43 40 39.554 40 35.312c0-4.241-3.41-7.687-7.595-7.687zm0-25.205c2.873 0 5.207 2.366 5.207 5.276 0 2.911-2.334 5.277-5.207 5.277-2.872 0-5.207-2.366-5.207-5.277 0-2.91 2.344-5.276 5.207-5.276zM7.595 26.768c-2.873 0-5.207-2.366-5.207-5.277s2.334-5.277 5.207-5.277c2.872 0 5.207 2.366 5.207 5.277s-2.344 5.277-5.207 5.277zm24.81 13.812c-2.872 0-5.207-2.366-5.207-5.276 0-2.911 2.335-5.277 5.207-5.277 2.873 0 5.207 2.366 5.207 5.277 0 2.91-2.334 5.276-5.207 5.276z"/>
</svg>
