<svg xmlns="http://www.w3.org/2000/svg" width="68" height="68">
    <path fill="#F78631" fill-rule="evenodd" d="M34 0c18.778 0 34 15.222 34 34S52.778 68 34 68 0 52.778 0 34 15.222 0 34 0z"/>
    <path fill="#FFF" fill-rule="evenodd" d="M31.431 45.613c.476.481 1.27.481 1.763 0a1.191 1.191 0 0 0 0-1.702l-8.943-8.72h23.514c.688-.001 1.235-.535 1.235-1.205 0-.671-.547-1.221-1.235-1.221H24.251l8.943-8.704a1.213 1.213 0 0 0 0-1.72c-.493-.481-1.288-.481-1.763 0l-11.06 10.784a1.164 1.164 0 0 0 0 1.703l11.06 10.785z"/>
</svg>
