<?xml version="1.0" encoding="utf-8"?>
<!-- Generator: Adobe Illustrator 22.1.0, SVG Export Plug-In . SVG Version: 6.00 Build 0)  -->
<svg version="1.1" id="Layer_1" xmlns="http://www.w3.org/2000/svg" xmlns:xlink="http://www.w3.org/1999/xlink" x="0px" y="0px"
	 viewBox="0 0 15 19" style="enable-background:new 0 0 15 19;" xml:space="preserve">
<style type="text/css">
	.st0{fill:#F78631;}
</style>
<path class="st0" d="M15,16.5C15,16.2,15,16.5,15,16.5z M7.5,19C1.1,19,0,16.9,0,16.9l0-0.5c0,0,0,0,0-0.3c0.1-4.4,0.7-5.6,5.3-6.4
	c0,0,0.7,0.8,2.2,0.8c1.5,0,2.2-0.8,2.2-0.8c4.6,0.8,5.2,2.1,5.3,6.5c0,0.3,0,0.3,0,0.3v0.3C15,16.9,13.9,19,7.5,19z M0,16.4
	C0,16.3,0,16.2,0,16.4z M7.5,9.3c-2.2,0-4-2.1-4-4.6S4.1,0,7.5,0c3.4,0,4,2.1,4,4.6S9.7,9.3,7.5,9.3z"/>
</svg>
