<svg xmlns="http://www.w3.org/2000/svg" width="44" height="44">
    <path fill="#F78631" fill-rule="evenodd" d="M5.5 6.875v-5.5a1.374 1.374 0 1 1 2.75 0v5.5a1.374 1.374 0 1 1-2.75 0zM28.875 8.25c.76 0 1.374-.615 1.374-1.375v-5.5a1.373 1.373 0 1 0-2.749 0v5.5c0 .76.615 1.375 1.375 1.375zM5.5 30.25h5.501v-5.5H5.5v5.5zm8.25 0h5.5v-5.5h-5.5v5.5zm-11 2.476V13.75h30.251v5.5h2.748V8.524c0-1.67-1.331-3.024-2.978-3.024h-1.146v1.375a2.754 2.754 0 0 1-2.75 2.75 2.754 2.754 0 0 1-2.75-2.75V5.5h-16.5v1.375a2.754 2.754 0 0 1-2.75 2.75 2.754 2.754 0 0 1-2.75-2.75V5.5H2.981C1.333 5.5 0 6.854 0 8.524v24.202c0 1.665 1.333 3.024 2.981 3.024H19.25V33H2.981c-.126 0-.231-.129-.231-.274zM27.5 22v-5.5H22V22h5.5z"/>
    <path fill="#C66B27" fill-rule="evenodd" d="M11.001 16.5H5.5V22h5.501v-5.5zM13.75 22h5.5v-5.5h-5.5V22zM44 33c0 6.075-4.925 11-10.999 11C26.926 44 22 39.075 22 33s4.926-11 11.001-11C39.075 22 44 26.925 44 33zm-2.75 0c0-4.549-3.701-8.25-8.249-8.25-4.55 0-8.251 3.701-8.251 8.25 0 4.549 3.701 8.25 8.251 8.25 4.548 0 8.249-3.701 8.249-8.25zm-4.126 0h-4.123v-4.125a1.375 1.375 0 0 0-2.752 0v5.5c0 .76.617 1.375 1.376 1.375h5.499a1.374 1.374 0 1 0 0-2.75z"/>
</svg>
