<svg xmlns="http://www.w3.org/2000/svg" width="58" height="58">
    <path fill="#F78631" fill-rule="evenodd" d="M29 0C13.01 0 0 13.01 0 29.001.002 44.991 13.011 58 29 58c15.991 0 29-13.009 29-28.999C58 13.01 44.991 0 29 0zm0 5.283c5.589 0 6.942.47 11 3.717L10 41c-3.246-4.058-4.716-6.411-4.716-11.999C5.284 15.923 15.923 5.283 29 5.283zm0 47.433c-5.589 0-7.942-.469-12-3.716l32-33c3.246 4.058 3.717 7.412 3.717 13.001C52.716 42.078 42.078 52.716 29 52.716z"/>
    <text fill="#FFF" font-family="Quicksand" font-size="49.721" transform="matrix(.1318 -.13734 .13734 .1318 19.96 44.478)">
        CANCEL
    </text>
</svg>
