<svg xmlns="http://www.w3.org/2000/svg" width="60" height="60">
    <path fill="none" stroke="#F78631" stroke-width="2" d="M30 5C16.136 5 5 16.136 5 30s11.136 25 25 25 25-11.136 25-25S43.864 5 30 5z"/>
    <path fill="#F78631" fill-rule="evenodd" d="M44.432 22.159L26.25 41.023c-.227.227-.454.341-.795.341s-.682-.114-.796-.341l-8.864-9.546-.227-.227a1.228 1.228 0 0 1-.341-.795c0-.228.114-.569.341-.796l1.591-1.591a1.1 1.1 0 0 1 1.591 0l.114.114 6.25 6.704a.548.548 0 0 0 .795 0l15.227-15.795h.114a1.098 1.098 0 0 1 1.591 0l1.591 1.591c.454.341.454 1.023 0 1.477z"/>
</svg>
