<svg xmlns="http://www.w3.org/2000/svg" width="60" height="60">
    <path fill-opacity="0" fill-rule="evenodd" stroke="#F78631" stroke-width="2" d="M30 5C16.136 5 5 16.136 5 30s11.136 25 25 25 25-11.136 25-25S43.864 5 30 5z"/>
    <path fill="#F78E3E" fill-rule="evenodd" d="M20.296 21.752a1.046 1.046 0 0 1 0-1.457 1.046 1.046 0 0 1 1.457 0l8.742 8.755 8.757-8.755a1.027 1.027 0 0 1 1.442 0 1.02 1.02 0 0 1 0 1.457l-8.742 8.741 8.742 8.754a1.02 1.02 0 0 1 0 1.457 1.027 1.027 0 0 1-1.442 0l-8.757-8.755-8.742 8.755a1.046 1.046 0 0 1-1.457 0 1.046 1.046 0 0 1 0-1.457l8.742-8.754-8.742-8.741z"/>
</svg>
