<svg xmlns="http://www.w3.org/2000/svg" width="27" height="26">
    <path fill="#FFF" fill-rule="evenodd" d="M13.118 25.996c-7.157 0-12.979-5.83-12.979-12.997C.139 5.833 5.961.003 13.118.003c7.156 0 12.979 5.83 12.979 12.996 0 7.167-5.823 12.997-12.979 12.997zm7.381-14.513V8.465a2.858 2.858 0 0 0-2.853-2.856H8.589a2.858 2.858 0 0 0-2.853 2.856v9.07a2.858 2.858 0 0 0 2.853 2.857h9.057a2.858 2.858 0 0 0 2.853-2.857v-6.052zm-2.854 7.467H8.589a1.415 1.415 0 0 1-1.415-1.415v-6.052h2.204a4.044 4.044 0 0 0 3.74 5.559 4.044 4.044 0 0 0 4.037-4.043c0-.536-.109-1.048-.299-1.516h2.204v6.052c0 .782-.634 1.415-1.415 1.415zM16.288 7.319l2.177-.007.326-.001V9.816l-2.494.009-.009-2.506zm-3.171 8.282a2.597 2.597 0 1 1-2.107-4.119 2.6 2.6 0 0 1 2.108-1.084c.867 0 1.634.429 2.107 1.085.306.427.492.95.492 1.516a2.605 2.605 0 0 1-2.6 2.602z"/>
</svg>
