<svg xmlns="http://www.w3.org/2000/svg" width="24" height="25">
    <path fill="#FFF" fill-rule="evenodd" d="M12.235.813C5.737.813.469 6.088.469 12.594s5.268 11.781 11.766 11.781C18.732 24.375 24 19.1 24 12.594 24 6.086 18.732.813 12.235.813zM9.293 18.3H6.352V7.992h2.941V18.3zM7.914 7.36a1.38 1.38 0 0 1-1.378-1.382 1.38 1.38 0 0 1 1.378-1.381 1.382 1.382 0 0 1 0 2.763zM19.588 18.3h-2.941v-6.374c0-.746-.213-1.269-1.129-1.269-1.52 0-1.813 1.269-1.813 1.269V18.3h-2.941V7.992h2.941v.985a4.921 4.921 0 0 1 2.942-.984c.953 0 2.941.572 2.941 4.023V18.3z"/>
</svg>
