<svg xmlns="http://www.w3.org/2000/svg" width="38" height="44">
    <path fill="#F78631" fill-rule="evenodd" d="M36.108 44H1.892C.843 44 .001 43.183.001 42.168V1.832C.001.817.843 0 1.892 0h34.216c1.048 0 1.893.826 1.893 1.832v40.336c0 1.015-.845 1.832-1.893 1.832zM35.076 2.792H2.923v39.304h32.153V2.792zM9.828 24.802h18.336c1.048 0 1.894-.063 1.894.951 0 1.015-.846.953-1.894.953H9.828c-1.049 0-1.894.053-1.894-.953 0-1.014.845-.951 1.894-.951zm0 8.225h18.336c1.048 0 1.894-.063 1.894.952s-.846.951-1.894.951H9.828c-1.049 0-1.894.054-1.894-.951 0-1.015.845-.952 1.894-.952zM23.46 14.062h-3.437v3.233c0 1.014.022 1.832-1.028 1.832-1.048 0-1.029-.818-1.029-1.832v-3.233h-3.435c-1.038 0-1.892.063-1.892-.952s.844-.952 1.892-.952h3.435V8.926c0-1.015-.019-1.832 1.029-1.832 1.05 0 1.028.817 1.028 1.832v3.232h3.437c1.047 0 1.891-.063 1.891.952s-.844.952-1.891.952z"/>
</svg>
