<svg xmlns="http://www.w3.org/2000/svg" width="63" height="58">
    <path fill="#F78631" fill-rule="evenodd" d="M62.899 24.501a1.326 1.326 0 0 0-1.2-.759h-3.925C55.276 10.262 43.387.016 29.132.016 13.069.016-.002 13.025-.002 29.014c0 15.988 13.069 28.997 29.134 28.997 10.367 0 20.035-5.554 25.232-14.493a2.63 2.63 0 0 0-.967-3.602 2.654 2.654 0 0 0-3.618.961c-4.254 7.315-12.165 11.861-20.647 11.861-13.143 0-23.837-10.643-23.837-23.724 0-13.083 10.694-23.726 23.837-23.726 11.321 0 20.805 7.903 23.222 18.452h-3.896c-.515 0-.981.297-1.2.76a1.308 1.308 0 0 0 .182 1.402l6.621 7.909a1.327 1.327 0 0 0 2.034 0l6.622-7.909c.33-.392.401-.938.182-1.401z"/>
    <path fill="#F78631" fill-rule="evenodd" d="M12.369 31.736A1.362 1.362 0 0 1 12 30.86c0-.25.123-.625.369-.876l1.723-1.752c.493-.5 1.231-.5 1.723 0l.123.125 6.77 7.384a.586.586 0 0 0 .861 0l16.492-17.396h.123c.493-.5 1.231-.5 1.723 0l1.723 1.752a1.224 1.224 0 0 1 0 1.753L23.938 42.625c-.246.25-.492.375-.861.375s-.616-.125-.862-.375l-9.6-10.513-.246-.376z"/>
</svg>
