<svg xmlns="http://www.w3.org/2000/svg" width="63" height="58">
    <path fill="#F78631" fill-rule="evenodd" d="M29.132 6.606a2.648 2.648 0 0 1 2.651 2.636v15.997a4.59 4.59 0 0 1 1.945 3.372l9.221 5.298a2.63 2.63 0 0 1 .97 3.602 2.65 2.65 0 0 1-2.296 1.318 2.64 2.64 0 0 1-1.322-.353l-9.212-5.294a4.6 4.6 0 0 1-1.956.446c-2.556 0-4.635-2.07-4.635-4.614 0-1.563.788-2.941 1.986-3.776V9.242a2.642 2.642 0 0 1 2.648-2.636zm0 24.384a1.984 1.984 0 0 0 1.986-1.976 1.985 1.985 0 0 0-1.986-1.977 1.985 1.985 0 0 0-1.986 1.977c0 1.089.89 1.976 1.986 1.976zm33.585-5.088l-6.622 7.909a1.327 1.327 0 0 1-2.034 0l-6.621-7.909a1.308 1.308 0 0 1-.182-1.402c.219-.463.685-.76 1.2-.76h3.896C49.937 13.191 40.453 5.288 29.132 5.288c-13.143 0-23.837 10.643-23.837 23.726 0 13.081 10.694 23.724 23.837 23.724 8.482 0 16.393-4.546 20.647-11.861a2.654 2.654 0 0 1 3.618-.961 2.63 2.63 0 0 1 .967 3.602c-5.197 8.939-14.865 14.493-25.232 14.493-16.065 0-29.134-13.009-29.134-28.997C-.002 13.025 13.069.016 29.132.016c14.255 0 26.144 10.246 28.642 23.726h3.925c.515 0 .981.296 1.2.759a1.306 1.306 0 0 1-.182 1.401z"/>
</svg>
