<svg xmlns="http://www.w3.org/2000/svg" width="26" height="26">
    <path fill="#FFF" fill-rule="evenodd" d="M13.07.813C6.349.813.899 6.269.899 13c0 6.731 5.45 12.187 12.171 12.187 6.722 0 12.171-5.456 12.171-12.187C25.241 6.268 19.792.813 13.07.813zm6.056 9.451l.009.388c0 3.967-3.015 8.537-8.527 8.537a8.48 8.48 0 0 1-4.593-1.348 6.006 6.006 0 0 0 4.436-1.241 2.997 2.997 0 0 1-2.798-2.084 3.073 3.073 0 0 0 1.354-.052 3.002 3.002 0 0 1-2.404-2.942v-.038c.405.225.865.36 1.357.376a2.998 2.998 0 0 1-1.333-2.497c0-.549.147-1.064.405-1.508a8.5 8.5 0 0 0 6.177 3.136 2.999 2.999 0 0 1 5.107-2.737 6.054 6.054 0 0 0 1.903-.727 3.012 3.012 0 0 1-1.317 1.66 5.979 5.979 0 0 0 1.72-.472 6.054 6.054 0 0 1-1.496 1.549z"/>
</svg>
