<svg xmlns="http://www.w3.org/2000/svg" width="24" height="25">
    <path fill="#FFF" fill-rule="evenodd" d="M11.766 24.375C5.268 24.375.001 19.1.001 12.594S5.268.813 11.766.813c6.497 0 11.764 5.275 11.764 11.781s-5.267 11.781-11.764 11.781zm8.019-15.713c-.204-.885-.926-1.538-1.796-1.635-2.06-.23-4.145-.232-6.22-.23-2.077-.002-4.161 0-6.222.23-.87.097-1.592.75-1.795 1.635-.289 1.259-.293 2.635-.293 3.932 0 1.297 0 2.672.29 3.932.203.885.925 1.537 1.795 1.635 2.06.23 4.145.231 6.221.23 2.076.001 4.161 0 6.221-.23.869-.098 1.592-.75 1.795-1.635.29-1.26.291-2.635.291-3.932 0-1.297.002-2.672-.287-3.932zM9.622 9.675l5.281 2.759-5.281 2.742V9.675z"/>
</svg>
