<svg xmlns="http://www.w3.org/2000/svg" width="148" height="44">
    <path fill-rule="evenodd" d="M141.884.203h.005a.097.097 0 0 1 .021.006c.478.052.943.215 1.39.428.138.064.256.136.384.212.317.189.613.414.888.682.103.096.209.179.303.288.05.055.109.092.155.147.278.344.501.719.671 1.108.02.038.021.083.038.124.178.436.271.883.309 1.333.005.063.041.121.044.185l1.074 24.432c.083 2.253.338 4.892-1.903 4.658-2.238-.235-2.118-3.252-2.201-5.511l-.581-20.867c-9.741 11.592-25.765 22.21-26.385 22.566C76.819 52.368 26.715 47.293 1.78 11.206c-1.234-1.787-2.081-3-.729-4.235.145-.132.301-.252.471-.362 1.776-1.114 3.319.582 4.686 2.555 22.211 32.144 71.289 40.074 107.05 17.614.17-.096 16.633-10.961 25.709-22.307l-22.055 3.74c-2.117.436-4.426.985-5.163-1.238-.741-2.226 1.38-2.374 3.493-2.824L140.701.254a3.974 3.974 0 0 1 1.183-.051z" opacity=".302"/>
</svg>
