<?xml version="1.0" encoding="utf-8"?>
<!-- Generator: Adobe Illustrator 22.1.0, SVG Export Plug-In . SVG Version: 6.00 Build 0)  -->
<svg version="1.1" id="Layer_1" xmlns="http://www.w3.org/2000/svg" xmlns:xlink="http://www.w3.org/1999/xlink" x="0px" y="0px"
	 viewBox="0 0 213 48" style="enable-background:new 0 0 213 48;" xml:space="preserve">
<style type="text/css">
	.st0{fill:#F78631;}
	.st1{fill:#FFFFFF;}
	.st2{font-family:'ArialMT';}
	.st3{font-size:12px;}
	.st4{opacity:0.5;fill:#FFFFFF;enable-background:new    ;}
	.st5{fill:#FFE7C5;}
	.st6{font-size:9.1706px;}
</style>
<path class="st0" d="M5,6h190c2.8,0,5,2.2,5,5v32c0,2.8-2.2,5-5,5H5c-2.8,0-5-2.2-5-5V11C0,8.2,2.2,6,5,6z"/>
<text transform="matrix(1.0057 0 0 1 72.0479 25.0522)" class="st1 st2 st3">Free Online Doctor</text>
<text transform="matrix(1.0057 0 0 1 71.3896 39.457)" class="st1 st2 st3">Consultation</text>
<path class="st4" d="M64,13h1v28h-1V13z"/>
<path class="st5" d="M196.4,0l-1.8,3.5L191,1.9l-0.4,3.9l-3.9-0.1l1.1,3.7l-3.6,1.4l2.5,3l-2.8,2.7l3.4,1.8l-1.5,3.6l3.9,0.4
	l-0.1,3.9l3.7-1.2l1.4,3.6l3-2.5l2.7,2.8l1.8-3.4l3.6,1.5l0.4-3.9l3.9,0.1l-1.1-3.7l3.6-1.4l-2.5-3l2.8-2.7l-3.4-1.8L211,7l-3.9-0.4
	l0.1-3.9l-3.7,1.1l-1.4-3.6l-3,2.5L196.4,0L196.4,0z"/>
<text transform="matrix(0.9967 0 0 1 189.5977 16.896)" class="st0 st2 st6">New</text>
<path class="st1" d="M18,32.1c-1.3,0-2.5-0.3-3.5-0.9c-1.1-0.6-1.9-1.5-2.5-2.5c-0.6-1.1-0.9-2.3-0.9-3.5c0-1.3,0.3-2.5,0.8-3.5
	c0.6-1.1,1.3-1.9,2.3-2.5s2.1-0.9,3.3-0.9c1,0,1.9,0.2,2.7,0.6c0.4,0.2,0.8,0.5,1.2,0.8v-5c0-0.5,0.2-0.9,0.5-1.2s0.7-0.5,1.2-0.5
	s0.9,0.2,1.2,0.5s0.5,0.7,0.5,1.2v10.6c0,1.3-0.3,2.5-0.9,3.5c-0.6,1.1-1.4,1.9-2.5,2.5C20.5,31.8,19.3,32.1,18,32.1z M18,21.3
	c-0.7,0-1.3,0.2-1.8,0.5c-0.6,0.3-1,0.8-1.3,1.4s-0.5,1.2-0.5,2s0.2,1.4,0.5,2s0.7,1,1.3,1.4c0.5,0.3,1.1,0.5,1.8,0.5
	s1.3-0.2,1.8-0.5c0.6-0.3,1-0.8,1.3-1.4s0.5-1.2,0.5-2s-0.2-1.4-0.5-2s-0.7-1-1.3-1.4C19.3,21.5,18.7,21.3,18,21.3z M33,31.5
	c-1.3,0-2.5-0.3-3.6-0.9s-1.9-1.4-2.5-2.5c-0.6-1-0.9-2.3-0.9-3.6s0.3-2.5,0.9-3.6s1.4-1.9,2.5-2.5s2.3-0.9,3.6-0.9
	c1.3,0,2.5,0.3,3.5,0.9s1.9,1.4,2.5,2.5s0.9,2.3,0.9,3.6S39.6,27,39,28.1s-1.4,1.9-2.5,2.5C35.6,31.3,34.4,31.5,33,31.5z M33,20.8
	c-0.7,0-1.3,0.2-1.9,0.5c-0.6,0.3-1,0.8-1.3,1.4c-0.3,0.6-0.5,1.3-0.5,2s0.2,1.4,0.5,2s0.7,1,1.3,1.3s1.2,0.5,1.9,0.5
	s1.3-0.2,1.9-0.5c0.5-0.3,1-0.8,1.3-1.3c0.3-0.6,0.5-1.2,0.5-2c0-0.7-0.2-1.4-0.5-2s-0.7-1-1.3-1.3C34.4,20.9,33.7,20.8,33,20.8z
	 M22.9,33.8c0.4,0.2,0.7,0.6,1,1c0.2,0.4,0.4,0.9,0.4,1.4s-0.1,1-0.3,1.4s-0.5,0.7-0.9,1c-0.4,0.2-0.8,0.4-1.3,0.4
	c-0.4,0-0.7-0.1-1.1-0.2c-0.3-0.2-0.6-0.4-0.8-0.7v2.7c0,0.2,0,0.3-0.1,0.4s-0.2,0.1-0.4,0.1c-0.1,0-0.3,0-0.4-0.1s-0.1-0.2-0.1-0.4
	v-4.5c0-0.5,0.1-1,0.4-1.4c0.3-0.4,0.6-0.7,1-1c0.4-0.2,0.9-0.4,1.4-0.4C22.1,33.5,22.5,33.6,22.9,33.8z M22.5,37.8
	c0.3-0.2,0.5-0.4,0.6-0.7c0.2-0.3,0.2-0.6,0.2-0.9c0-0.3-0.1-0.6-0.2-0.9c-0.2-0.3-0.4-0.5-0.6-0.7s-0.6-0.2-0.9-0.2
	s-0.6,0.1-0.9,0.2c-0.3,0.2-0.5,0.4-0.6,0.7c-0.2,0.3-0.2,0.6-0.2,0.9c0,0.3,0.1,0.6,0.2,0.9c0.2,0.3,0.4,0.5,0.6,0.7
	C21,38,21.3,38,21.6,38C21.9,38.1,22.2,38,22.5,37.8z M29.2,33.6c0.2,0.1,0.3,0.2,0.3,0.4v0.1c-0.1,0.2-0.2,0.3-0.4,0.3H29
	c-0.3,0-0.5-0.1-0.6-0.1c-0.5,0-0.9,0.1-1.1,0.3c-0.3,0.2-0.4,0.5-0.4,0.9v2.9c0,0.2,0,0.3-0.1,0.4s-0.2,0.1-0.4,0.1s-0.3,0-0.4-0.1
	s-0.1-0.2-0.1-0.4V34c0-0.2,0-0.3,0.1-0.4s0.2-0.1,0.4-0.1c0.3,0,0.5,0.2,0.5,0.4c0,0,0,0,0,0.1v0.2c0.2-0.2,0.4-0.4,0.7-0.5
	s0.6-0.2,0.9-0.2C28.7,33.5,29,33.5,29.2,33.6z M30.8,33.7c0.1-0.1,0.2-0.1,0.4-0.1s0.3,0,0.4,0.1s0.1,0.2,0.1,0.4v4.4
	c0,0.1,0,0.3-0.1,0.4S31.4,39,31.2,39c-0.1,0-0.3,0-0.4-0.1s-0.1-0.2-0.1-0.4V34C30.6,33.9,30.7,33.7,30.8,33.7z M40.5,34
	c0.4,0.4,0.5,0.9,0.5,1.6v2.8c0,0.1,0,0.3-0.1,0.4s-0.2,0.1-0.4,0.1c-0.1,0-0.3,0-0.4-0.1S40,38.6,40,38.4v-2.8
	c0-0.4-0.1-0.7-0.3-0.9s-0.5-0.3-0.8-0.3s-0.6,0.1-0.8,0.4c-0.2,0.2-0.3,0.5-0.3,0.9v2.8c0,0.1,0,0.3-0.1,0.4S37.5,39,37.3,39
	c-0.1,0-0.3,0-0.4-0.1s-0.1-0.2-0.1-0.4v-2.8c0-0.4-0.1-0.7-0.3-0.9s-0.5-0.3-0.8-0.3s-0.6,0.1-0.8,0.4c-0.2,0.2-0.3,0.5-0.3,0.9
	v2.8c0,0.1,0,0.3-0.1,0.4s-0.2,0.1-0.4,0.1c-0.1,0-0.3,0-0.4-0.1s-0.1-0.2-0.1-0.4V34c0-0.2,0-0.3,0.1-0.4s0.2-0.1,0.4-0.1
	s0.3,0,0.4,0.1s0.1,0.2,0.1,0.4c0.2-0.2,0.4-0.3,0.6-0.4s0.5-0.1,0.8-0.1s0.6,0.1,0.9,0.2s0.5,0.3,0.7,0.6c0.2-0.2,0.4-0.4,0.7-0.6
	s0.6-0.2,1-0.2S40.2,33.7,40.5,34z M47.4,36.4c-0.1,0.1-0.2,0.1-0.3,0.1h-3.7c0.1,0.5,0.3,0.8,0.6,1.1s0.8,0.4,1.3,0.4
	c0.2,0,0.4,0,0.6-0.1s0.4-0.2,0.5-0.3s0.2-0.1,0.3-0.1s0.2,0,0.3,0.1s0.2,0.2,0.2,0.3s-0.1,0.2-0.2,0.3c-0.2,0.2-0.5,0.3-0.8,0.4
	s-0.6,0.2-1,0.2c-0.5,0-1-0.1-1.4-0.4c-0.4-0.2-0.8-0.6-1-1c-0.2-0.4-0.4-0.9-0.4-1.4s0.1-1,0.3-1.4s0.5-0.7,0.9-1
	c0.4-0.2,0.9-0.4,1.4-0.4s0.9,0.1,1.3,0.3s0.6,0.5,0.8,0.9s0.3,0.9,0.3,1.4C47.6,36.2,47.5,36.3,47.4,36.4z M43.9,34.7
	c-0.3,0.3-0.5,0.6-0.6,1.1h3.3c-0.1-0.4-0.2-0.8-0.5-1.1s-0.6-0.4-1.1-0.4C44.6,34.3,44.2,34.5,43.9,34.7z"/>
<circle class="st1" cx="53.1" cy="25.8" r="1.4"/>
<circle class="st1" cx="50.7" cy="20.1" r="1.4"/>
<path class="st1" d="M51.2,29c-0.3-0.7-1.2-1.1-1.9-0.8c-2,0.8-4.4-0.2-5.2-2.2s0.2-4.4,2.2-5.2c0.7-0.3,1.1-1.2,0.8-1.9
	s-1.2-1.1-1.9-0.8c-3.5,1.4-5.3,5.5-3.8,9c1.4,3.5,5.5,5.3,9,3.8C51.2,30.6,51.5,29.8,51.2,29z"/>
</svg>
