<?xml version="1.0" encoding="utf-8"?>
<!-- Generator: Adobe Illustrator 22.1.0, SVG Export Plug-In . SVG Version: 6.00 Build 0)  -->
<svg version="1.1" id="Layer_1" xmlns="http://www.w3.org/2000/svg" xmlns:xlink="http://www.w3.org/1999/xlink" x="0px" y="0px"
	 viewBox="0 0 783 133.3" style="enable-background:new 0 0 783 133.3;" xml:space="preserve">
<style type="text/css">
	.st0{fill:#F78631;}
	.st1{fill:#FFFFFF;}
	.st2{font-family:'ArialMT';}
	.st3{font-size:34px;}
	.st4{opacity:0.5;fill:#FFFFFF;enable-background:new    ;}
	.st5{fill:#FFE7C5;}
	.st6{font-size:18.2311px;}
</style>
<path class="st0" d="M10,13.3h744c5.5,0,10,4.5,10,10v100c0,5.5-4.5,10-10,10H10c-5.5,0-10-4.5-10-10v-100C0,17.7,4.5,13.3,10,13.3z
	"/>
<text transform="matrix(1.0033 0 0 1 213.7983 83.8096)" class="st1 st2 st3">Free Online Doctor Consultation</text>
<path class="st4" d="M153.1,29.2h1.7V117h-1.7V29.2z"/>
<path class="st5" d="M749.8,0l-3.6,7.1L739,3.9l-0.7,8l-7.7-0.1l2.3,7.5l-7.3,3l5,6.2L725,34l6.8,3.6l-3.1,7.3l7.7,0.8l-0.1,8
	l7.5-2.4l2.8,7.4l6-5.1l5.4,5.7l3.6-7.1l7.2,3.1l0.7-7.9l7.7,0.1l-2.3-7.6l7.3-3l-5-6.2l5.6-5.5l-6.8-3.6l3.1-7.3l-7.7-0.8l0.1-8
	L764,7.8l-2.8-7.3l-6,5.1L749.8,0z"/>
<text transform="matrix(0.9772 0 0 1 737.0811 35.1533)" class="st0 st2 st6">New</text>
<path class="st1" d="M43.6,85.3c-3.3,0-6.4-0.8-9.2-2.4s-5-3.8-6.5-6.6c-1.6-2.8-2.4-5.9-2.4-9.2c0-3.4,0.7-6.5,2.2-9.2
	c1.5-2.8,3.5-5,6.1-6.6s5.5-2.4,8.6-2.4c2.5,0,4.9,0.5,7.1,1.6c1.1,0.5,2.2,1.2,3.1,2v-13c0-1.3,0.5-2.4,1.3-3.2
	c0.9-0.8,1.9-1.2,3.2-1.2s2.4,0.4,3.2,1.2s1.2,1.9,1.2,3.2v27.6c0,3.4-0.8,6.5-2.4,9.2c-1.6,2.8-3.8,5-6.5,6.6
	C50,84.5,46.9,85.3,43.6,85.3z M43.6,57.1c-1.8,0-3.3,0.4-4.7,1.3c-1.4,0.9-2.6,2.1-3.4,3.5c-0.8,1.5-1.2,3.2-1.2,5.1
	s0.4,3.6,1.2,5.1s1.9,2.7,3.4,3.6c1.4,0.9,3,1.3,4.7,1.3s3.3-0.4,4.7-1.3s2.5-2,3.3-3.5s1.2-3.2,1.2-5.1s-0.4-3.6-1.2-5.1
	s-1.9-2.7-3.3-3.5C46.9,57.5,45.4,57.1,43.6,57.1z M82.7,83.9c-3.5,0-6.6-0.8-9.3-2.3C70.7,80,68.5,77.8,67,75
	c-1.5-2.7-2.3-5.9-2.3-9.3c0-3.5,0.8-6.6,2.3-9.4s3.7-4.9,6.5-6.5c2.7-1.5,5.9-2.3,9.3-2.3s6.5,0.8,9.2,2.3c2.7,1.6,4.9,3.7,6.5,6.5
	c1.5,2.7,2.3,5.9,2.3,9.4s-0.8,6.6-2.3,9.3s-3.7,4.9-6.4,6.5C89.3,83.1,86.2,83.9,82.7,83.9z M82.7,55.7c-1.8,0-3.4,0.4-4.8,1.2
	s-2.5,2-3.3,3.5s-1.2,3.3-1.2,5.2c0,1.9,0.4,3.7,1.2,5.2s1.9,2.6,3.3,3.5s3,1.2,4.8,1.2s3.4-0.4,4.8-1.2s2.5-2,3.3-3.5
	s1.2-3.2,1.2-5.2s-0.4-3.7-1.2-5.2s-1.9-2.7-3.3-3.5C86.1,56.2,84.6,55.7,82.7,55.7z M56.4,89.8c1.1,0.6,1.9,1.5,2.5,2.6
	s0.9,2.3,0.9,3.6s-0.3,2.5-0.9,3.6c-0.6,1-1.4,1.9-2.4,2.5s-2.1,0.9-3.3,0.9c-1,0-1.9-0.2-2.8-0.6s-1.6-1-2.2-1.7v6.9
	c0,0.4-0.1,0.7-0.4,1c-0.3,0.3-0.6,0.4-1,0.4s-0.7-0.1-0.9-0.4s-0.4-0.6-0.4-1V96c0-1.3,0.3-2.5,0.9-3.6s1.5-1.9,2.5-2.6
	c1.1-0.6,2.2-0.9,3.6-0.9C54.1,88.9,55.3,89.2,56.4,89.8z M55.1,100.2c0.7-0.4,1.2-1,1.6-1.7s0.6-1.5,0.6-2.4s-0.2-1.7-0.6-2.5
	c-0.4-0.8-1-1.3-1.6-1.7c-0.7-0.4-1.5-0.6-2.3-0.6s-1.6,0.2-2.3,0.6s-1.2,1-1.6,1.7s-0.6,1.6-0.6,2.5s0.2,1.7,0.6,2.4
	s0.9,1.3,1.6,1.7s1.5,0.6,2.3,0.6C53.6,100.8,54.4,100.6,55.1,100.2z M72.8,89.2c0.5,0.3,0.8,0.6,0.8,1v0.2c-0.1,0.5-0.5,0.8-1,0.8
	h-0.4C71.5,91.1,71,91,70.5,91c-1.2,0-2.2,0.3-3,0.9c-0.7,0.6-1.1,1.3-1.1,2.3v7.5c0,0.4-0.1,0.7-0.3,1c-0.2,0.2-0.5,0.3-1,0.3
	c-0.4,0-0.7-0.1-1-0.3c-0.2-0.2-0.3-0.5-0.3-1V90.3c0-0.4,0.1-0.7,0.3-0.9c0.2-0.2,0.5-0.3,1-0.3c0.9,0,1.3,0.4,1.3,1.3v0.5
	c0.5-0.6,1.1-1.1,1.9-1.4c0.7-0.3,1.6-0.5,2.4-0.5C71.5,88.8,72.2,89,72.8,89.2z M76.8,89.3c0.2-0.2,0.6-0.4,0.9-0.4
	c0.4,0,0.7,0.1,1,0.4c0.2,0.2,0.4,0.6,0.4,0.9v11.4c0,0.4-0.1,0.7-0.4,0.9s-0.6,0.4-1,0.4s-0.7-0.1-0.9-0.4
	c-0.2-0.2-0.4-0.6-0.4-0.9V90.3C76.5,89.9,76.6,89.6,76.8,89.3z M102.3,90.3c0.9,1,1.4,2.3,1.4,4.1v7.3c0,0.4-0.1,0.7-0.4,0.9
	s-0.6,0.4-1,0.4s-0.7-0.1-0.9-0.4c-0.2-0.2-0.4-0.6-0.4-0.9v-7.3c0-1-0.3-1.8-0.8-2.4c-0.5-0.5-1.2-0.8-2.1-0.8s-1.6,0.3-2.2,0.9
	S95,93.5,95,94.5v7.2c0,0.4-0.1,0.7-0.4,0.9c-0.3,0.3-0.6,0.4-1,0.4s-0.7-0.1-0.9-0.4c-0.2-0.2-0.4-0.6-0.4-0.9v-7.3
	c0-1-0.3-1.8-0.8-2.4c-0.5-0.5-1.2-0.8-2.1-0.8s-1.6,0.3-2.2,0.9s-0.9,1.4-0.9,2.4v7.2c0,0.4-0.1,0.7-0.4,0.9
	c-0.3,0.3-0.6,0.4-1,0.4s-0.7-0.1-0.9-0.4c-0.2-0.2-0.4-0.6-0.4-0.9V90.3c0-0.4,0.1-0.7,0.4-0.9c0.2-0.2,0.6-0.4,0.9-0.4
	c0.4,0,0.7,0.1,0.9,0.4s0.4,0.5,0.4,0.9c0.4-0.4,1-0.8,1.6-1s1.3-0.4,2-0.4c0.9,0,1.6,0.2,2.4,0.5c0.7,0.4,1.2,0.9,1.7,1.5
	c0.5-0.6,1.1-1.1,1.9-1.5s1.6-0.5,2.6-0.5C100.2,88.9,101.4,89.3,102.3,90.3z M120.2,96.6c-0.2,0.2-0.5,0.3-0.9,0.3h-9.7
	c0.2,1.2,0.7,2.2,1.6,2.9s2,1.1,3.3,1.1c0.5,0,1-0.1,1.6-0.3s1-0.4,1.4-0.7c0.2-0.2,0.5-0.3,0.9-0.3c0.3,0,0.6,0.1,0.8,0.2
	c0.3,0.2,0.5,0.5,0.5,0.9c0,0.3-0.1,0.6-0.4,0.8c-0.6,0.5-1.3,0.8-2.2,1.1s-1.7,0.4-2.5,0.4c-1.4,0-2.6-0.3-3.8-0.9
	c-1.1-0.6-2-1.4-2.6-2.5s-0.9-2.3-0.9-3.7s0.3-2.6,0.9-3.7s1.4-1.9,2.5-2.5c1-0.6,2.2-0.9,3.6-0.9c1.3,0,2.5,0.3,3.4,0.9
	c1,0.6,1.7,1.4,2.2,2.4s0.8,2.2,0.8,3.6C120.6,96.1,120.4,96.4,120.2,96.6z M111.1,92.1c-0.8,0.7-1.3,1.6-1.5,2.7h8.5
	c-0.1-1.1-0.6-2.1-1.3-2.7c-0.7-0.7-1.6-1-2.7-1C112.9,91.1,111.9,91.4,111.1,92.1z"/>
<circle class="st1" cx="135.1" cy="68.8" r="3.6"/>
<circle class="st1" cx="128.7" cy="54" r="3.6"/>
<path class="st1" d="M130.1,77.3c-0.8-1.9-3-2.9-4.9-2.1c-5.3,2.2-11.4-0.4-13.6-5.8c-2.2-5.3,0.4-11.4,5.8-13.6
	c1.9-0.8,2.9-3,2.1-4.9s-3-2.9-4.9-2.1c-9.2,3.7-13.7,14.3-10,23.5s14.3,13.7,23.5,10C130,81.5,130.9,79.2,130.1,77.3z"/>
</svg>
