<svg xmlns="http://www.w3.org/2000/svg" width="32" height="32">
    <path fill="#FFF" fill-rule="evenodd" d="M15.999 31.995c-8.82 0-15.995-7.176-15.995-15.996S7.179.004 15.999.004s15.996 7.175 15.996 15.995-7.176 15.996-15.996 15.996zm9.097-17.862v-3.714a3.52 3.52 0 0 0-3.516-3.516H10.418a3.52 3.52 0 0 0-3.516 3.516v11.162a3.52 3.52 0 0 0 3.516 3.517H21.58a3.52 3.52 0 0 0 3.516-3.517v-7.448zm-3.517 9.19H10.418a1.743 1.743 0 0 1-1.744-1.742v-7.448h2.716a4.93 4.93 0 0 0-.366 1.866 4.981 4.981 0 0 0 4.975 4.976 4.982 4.982 0 0 0 4.976-4.976c0-.66-.134-1.29-.369-1.866h2.717v7.448c0 .963-.782 1.742-1.744 1.742zM19.906 9.008l2.683-.009.402-.001v3.084l-3.074.01-.011-3.084zm-3.907 10.194a3.207 3.207 0 0 1-3.203-3.203 3.189 3.189 0 0 1 .606-1.867 3.2 3.2 0 0 1 2.597-1.335 3.2 3.2 0 0 1 2.597 1.336c.378.525.606 1.169.606 1.866a3.208 3.208 0 0 1-3.203 3.203z"/>
</svg>
