<svg xmlns="http://www.w3.org/2000/svg" width="30" height="30">
    <path fill="#FFF" fill-rule="evenodd" d="M15 0C6.716 0 0 6.716 0 15c0 8.284 6.716 15 15 15 8.284 0 15-6.716 15-15 0-8.285-6.716-15-15-15zm7.463 11.633l.011.478c0 4.881-3.715 10.506-10.508 10.506-2.085 0-4.026-.611-5.661-1.659a7.417 7.417 0 0 0 5.468-1.527 3.699 3.699 0 0 1-3.45-2.565 3.793 3.793 0 0 0 1.669-.064 3.698 3.698 0 0 1-2.963-3.621v-.047a3.675 3.675 0 0 0 1.673.463 3.691 3.691 0 0 1-1.642-3.073c0-.677.181-1.31.499-1.856a10.478 10.478 0 0 0 7.611 3.859 3.694 3.694 0 0 1 6.295-3.368 7.467 7.467 0 0 0 2.346-.896 3.706 3.706 0 0 1-1.624 2.044 7.397 7.397 0 0 0 2.12-.581 7.447 7.447 0 0 1-1.844 1.907z"/>
</svg>
