<svg xmlns="http://www.w3.org/2000/svg" width="15" height="14">
    <path fill="#FFF" fill-rule="evenodd" d="M12.215 14h-9.43C1.251 14 0 12.743 0 11.195V7.194a.43.43 0 1 1 .86 0v4.001c0 1.067.862 1.939 1.925 1.939h9.43c1.06 0 1.925-.868 1.925-1.939V7.258a.43.43 0 1 1 .86 0v3.937C15 12.74 13.752 14 12.215 14zM10.231 3.619a.428.428 0 0 1-.302-.128L7.93 1.478v8.781a.43.43 0 1 1-.86 0V1.478L5.071 3.491a.428.428 0 0 1-.605 0 .435.435 0 0 1 0-.612L7.198.128A.413.413 0 0 1 7.5 0c.111 0 .223.048.302.128l2.732 2.751a.435.435 0 0 1-.303.74z"/>
</svg>
